<?xml version="1.0" encoding="UTF-8" standalone="no"?>
<!DOCTYPE svg PUBLIC "-//W3C//DTD SVG 1.1//EN" "http://www.w3.org/Graphics/SVG/1.1/DTD/svg11.dtd">
<svg width="100%" height="100%" viewBox="0 0 3600 1800" version="1.1" xmlns="http://www.w3.org/2000/svg" xmlns:xlink="http://www.w3.org/1999/xlink" xml:space="preserve" xmlns:serif="http://www.serif.com/" style="fill-rule:evenodd;clip-rule:evenodd;stroke-linecap:round;stroke-linejoin:round;stroke-miterlimit:1.5;">
    <g transform="matrix(0.712635,0,0,0.712635,-63.8893,-225.489)">
        <g id="Philip">
            <text x="308.571px" y="1147.25px" style="font-family:'Calibri', sans-serif;font-size:817.377px;fill:rgb(67,86,111);">Philip McIlr<tspan x="4047.04px 4473.68px " y="1147.25px 1147.25px ">oy</tspan></text>
        </g>
    </g>
    <g transform="matrix(0.879075,0,0,0.879075,45.8747,-547.991)">
        <g id="furniture">
            <text x="284.795px" y="2254.95px" style="font-family:'Calibri', sans-serif;font-size:298.232px;">Furnitur<tspan x="1264.24px 1412.63px " y="2254.95px 2254.95px ">e </tspan>Mak<tspan x="2003.85px 2152.24px " y="2254.95px 2254.95px ">er</tspan> &amp; Designer</text>
        </g>
    </g>
    <g id="Line" transform="matrix(1,0,0,1,24.3902,-861.635)">
        <g transform="matrix(1,0,0,1,-25.4132,865.727)">
            <path d="M159.991,895.981L1202.72,895.981" style="fill:none;stroke:rgb(112,111,111);stroke-width:29.17px;"/>
        </g>
        <g transform="matrix(1,0,0,1,2253.42,865.727)">
            <path d="M159.991,895.981L1202.72,895.981" style="fill:none;stroke:rgb(112,111,111);stroke-width:29.17px;"/>
        </g>
    </g>
    <g id="Elephant" transform="matrix(0.653699,0,0,0.653699,578.174,539.584)">
        <g transform="matrix(1,0,0,1,-0.156895,98.1903)">
            <path d="M2303.33,435.584C2221.55,428.922 2195.87,363.288 2144.45,263.443C2094.17,165.802 2027.14,125.862 1948.82,119.469C1891.11,114.758 1820.12,141.655 1802.54,156.041C1784.96,170.427 1726.02,115.223 1646.1,131.208C1566.17,147.192 1393.03,210.465 1372.25,386.293C1351.47,562.121 1462.59,729.907 1466.46,755.069C1492.03,755.647 1543.88,763.188 1563.06,762.167C1566.04,717.671 1511.29,538.688 1688.27,536.661C1822.35,535.126 1805.79,705.697 1796.47,759.341C1817.43,759.789 1857.28,763.948 1892.44,765.547C1917.89,737.311 1975.6,553.412 1989.99,510.254C2011.08,501.288 2046.25,516.219 2064.99,499.155C2101.76,465.673 2138.09,391.076 2169.17,417.52C2209.22,451.59 2241.26,488.31 2285.8,492.557C2343.95,498.1 2406.54,487.018 2474.75,423.803C2497.46,402.753 2510.47,343.484 2506.86,308.549C2504.05,281.33 2487.5,245.753 2446.41,233.337C2425.96,227.155 2358.22,213.161 2322.95,250.597C2283.52,292.452 2297.63,329.414 2342.9,383.815C2359.21,374.756 2383.32,361.01 2393.01,350.712C2348.92,344.004 2340.95,308.499 2367.3,284.581C2380.1,272.955 2432.55,276.103 2455.93,312.305C2470.33,334.612 2441.21,370.082 2424.55,386.86C2410.33,401.18 2340.61,438.62 2303.33,435.584Z" style="fill:rgb(112,111,111);"/>
        </g>
        <g transform="matrix(1,0,0,1,-12.1951,97.5609)">
            <path d="M2373.28,372.633C2313.34,370.135 2320.87,283.939 2386.5,302.167C2531.49,342.436 2344.25,488.643 2257.42,452.483C2216.39,435.399 2192.18,420.241 2147.53,325.213C2106.03,236.915 2030.59,143.445 1947.12,143.445C1777.29,143.445 1679.88,223.367 1659.9,308.284C1639.92,393.201 1722.34,443.152 1784.78,443.152C1847.22,443.152 1899.67,405.689 1907.16,308.284C1914.65,210.879 1747.32,153.435 1634.93,155.933C1522.54,158.431 1350.21,293.299 1347.71,435.66C1345.21,578.021 1437.62,732.87 1445.11,780.323C1510.05,787.816 1543.75,784.056 1543.75,784.056C1526.27,691.646 1502.56,573.026 1659.9,560.538C1817.25,548.05 1773.77,730.16 1776.27,785.107C1826.22,787.604 1830.87,787.297 1872.2,788.507C1902.98,751.044 1949.62,627.972 1967.1,533.065C1994.82,530.227 2020.36,545.101 2057.83,510.135C2095.29,475.169 2118.31,433.571 2137.84,434.926C2149.69,435.748 2163.4,463.158 2212.25,493.631C2251.19,517.926 2295.78,525.214 2355.72,505.016C2419.5,483.525 2456.5,460.546 2477.62,401.368C2509.54,311.911 2467.36,268.187 2424,255.008C2359.35,235.362 2306.84,249.041 2288.17,292.125C2266.67,341.745 2286.35,357.757 2321.89,406.661C2352.68,400.47 2372.37,378.275 2373.28,372.633Z" style="fill:none;stroke:rgb(0,62,121);stroke-width:12.75px;"/>
        </g>
        <g transform="matrix(1,0,0,1,-12.1951,97.5609)">
            <path d="M1233.36,589.09C1233.36,589.09 1276.95,716.842 1358.8,536.538" style="fill:none;stroke:rgb(0,62,121);stroke-width:12.75px;"/>
        </g>
        <g transform="matrix(1,0,0,1,-12.1951,97.5609)">
            <ellipse cx="2001.25" cy="278.353" rx="14.706" ry="12.788" style="fill:rgb(0,62,121);"/>
        </g>
    </g>
</svg>
