<?xml version="1.0" encoding="UTF-8" standalone="no"?>
<!DOCTYPE svg PUBLIC "-//W3C//DTD SVG 1.1//EN" "http://www.w3.org/Graphics/SVG/1.1/DTD/svg11.dtd">
<svg width="100%" height="100%" viewBox="0 0 3600 1800" version="1.1" xmlns="http://www.w3.org/2000/svg" xmlns:xlink="http://www.w3.org/1999/xlink" xml:space="preserve" xmlns:serif="http://www.serif.com/" style="fill-rule:evenodd;clip-rule:evenodd;stroke-linecap:round;stroke-linejoin:round;stroke-miterlimit:1.5;">
    <g transform="matrix(0.712635,0,0,0.712635,-63.8893,-225.489)">
        <g id="Philip">
            <g>
                <path d="M694.511,782.067C694.511,807.876 690.254,831.158 681.739,851.911C673.225,872.665 661.052,890.359 645.221,904.993C629.389,919.627 609.966,930.935 586.951,938.917C563.935,946.899 536.463,950.891 504.534,950.891L445.865,950.891L445.865,1136.88C445.865,1139 445.267,1140.87 444.069,1142.46C442.872,1144.06 441.009,1145.32 438.482,1146.26C435.954,1147.19 432.495,1147.98 428.105,1148.65C423.715,1149.32 418.194,1149.65 411.542,1149.65C404.89,1149.65 399.369,1149.32 394.979,1148.65C390.589,1147.98 387.063,1147.19 384.402,1146.26C381.742,1145.32 379.879,1144.06 378.815,1142.46C377.751,1140.87 377.218,1139 377.218,1136.88L377.218,660.338C377.218,649.695 380.012,642.112 385.6,637.589C391.187,633.066 397.44,630.804 404.358,630.804L514.911,630.804C526.086,630.804 536.796,631.27 547.04,632.201C557.284,633.132 569.39,635.128 583.359,638.188C597.328,641.248 611.563,646.968 626.064,655.35C640.565,663.731 652.87,674.041 662.981,686.281C673.092,698.52 680.875,712.688 686.329,728.786C691.784,744.883 694.511,762.644 694.511,782.067ZM622.272,787.655C622.272,766.635 618.347,749.074 610.498,734.972C602.649,720.87 592.937,710.36 581.363,703.442C569.789,696.524 557.816,692.134 545.443,690.272C533.071,688.409 521.031,687.478 509.324,687.478L445.865,687.478L445.865,894.616L507.727,894.616C528.481,894.616 545.709,891.955 559.412,886.634C573.115,881.312 584.623,873.929 593.935,864.483C603.248,855.038 610.299,843.73 615.088,830.559C619.877,817.388 622.272,803.087 622.272,787.655Z" style="fill:rgb(67,86,111);fill-rule:nonzero;"/>
                <path d="M1101.2,1137.28C1101.2,1139.4 1100.67,1141.2 1099.61,1142.66C1098.54,1144.13 1096.81,1145.39 1094.42,1146.45C1092.03,1147.52 1088.7,1148.32 1084.44,1148.85C1080.18,1149.38 1074.86,1149.65 1068.48,1149.65C1061.83,1149.65 1056.37,1149.38 1052.11,1148.85C1047.86,1148.32 1044.53,1147.52 1042.14,1146.45C1039.74,1145.39 1038.01,1144.13 1036.95,1142.66C1035.88,1141.2 1035.35,1139.4 1035.35,1137.28L1035.35,926.944C1035.35,906.456 1033.75,889.96 1030.56,877.454C1027.37,864.949 1022.71,854.173 1016.59,845.126C1010.47,836.08 1002.56,829.162 992.846,824.373C983.134,819.583 971.892,817.189 959.121,817.189C942.624,817.189 926.128,823.042 909.631,834.75C893.135,846.457 875.84,863.619 857.747,886.235L857.747,1137.28C857.747,1139.4 857.215,1141.2 856.15,1142.66C855.086,1144.13 853.357,1145.39 850.962,1146.45C848.567,1147.52 845.241,1148.32 840.984,1148.85C836.727,1149.38 831.273,1149.65 824.621,1149.65C818.235,1149.65 812.914,1149.38 808.656,1148.85C804.399,1148.32 801.007,1147.52 798.479,1146.45C795.951,1145.39 794.222,1144.13 793.291,1142.66C792.359,1141.2 791.894,1139.4 791.894,1137.28L791.894,604.064C791.894,601.935 792.359,600.073 793.291,598.476C794.222,596.88 795.951,595.55 798.479,594.485C801.007,593.421 804.399,592.623 808.656,592.091C812.914,591.558 818.235,591.292 824.621,591.292C831.273,591.292 836.727,591.558 840.984,592.091C845.241,592.623 848.567,593.421 850.962,594.485C853.357,595.55 855.086,596.88 856.15,598.476C857.215,600.073 857.747,601.935 857.747,604.064L857.747,819.184C876.638,799.229 895.662,784.395 914.82,774.683C933.977,764.972 953.267,760.116 972.691,760.116C996.637,760.116 1016.79,764.174 1033.16,772.289C1049.52,780.404 1062.76,791.247 1072.87,804.816C1082.98,818.386 1090.23,834.284 1094.62,852.51C1099.01,870.736 1101.2,892.754 1101.2,918.563L1101.2,1137.28Z" style="fill:rgb(67,86,111);fill-rule:nonzero;"/>
                <path d="M1287.19,1137.28C1287.19,1139.4 1286.66,1141.2 1285.59,1142.66C1284.53,1144.13 1282.8,1145.39 1280.4,1146.45C1278.01,1147.52 1274.68,1148.32 1270.43,1148.85C1266.17,1149.38 1260.71,1149.65 1254.06,1149.65C1247.68,1149.65 1242.36,1149.38 1238.1,1148.85C1233.84,1148.32 1230.45,1147.52 1227.92,1146.45C1225.39,1145.39 1223.66,1144.13 1222.73,1142.66C1221.8,1141.2 1221.34,1139.4 1221.34,1137.28L1221.34,778.076C1221.34,776.213 1221.8,774.484 1222.73,772.887C1223.66,771.291 1225.39,769.961 1227.92,768.896C1230.45,767.832 1233.84,767.034 1238.1,766.502C1242.36,765.97 1247.68,765.703 1254.06,765.703C1260.71,765.703 1266.17,765.97 1270.43,766.502C1274.68,767.034 1278.01,767.832 1280.4,768.896C1282.8,769.961 1284.53,771.291 1285.59,772.887C1286.66,774.484 1287.19,776.213 1287.19,778.076L1287.19,1137.28ZM1294.77,656.746C1294.77,672.179 1291.85,682.689 1285.99,688.276C1280.14,693.864 1269.36,696.657 1253.66,696.657C1238.23,696.657 1227.65,693.93 1221.93,688.476C1216.21,683.021 1213.35,672.711 1213.35,657.545C1213.35,642.112 1216.28,631.603 1222.13,626.015C1227.99,620.427 1238.76,617.634 1254.46,617.634C1269.89,617.634 1280.47,620.361 1286.19,625.815C1291.91,631.27 1294.77,641.58 1294.77,656.746Z" style="fill:rgb(67,86,111);fill-rule:nonzero;"/>
                <path d="M1474.77,1137.28C1474.77,1139.4 1474.24,1141.2 1473.17,1142.66C1472.11,1144.13 1470.38,1145.39 1467.99,1146.45C1465.59,1147.52 1462.27,1148.32 1458.01,1148.85C1453.75,1149.38 1448.3,1149.65 1441.64,1149.65C1435.26,1149.65 1429.94,1149.38 1425.68,1148.85C1421.42,1148.32 1418.03,1147.52 1415.5,1146.45C1412.98,1145.39 1411.25,1144.13 1410.32,1142.66C1409.38,1141.2 1408.92,1139.4 1408.92,1137.28L1408.92,604.064C1408.92,601.935 1409.38,600.073 1410.32,598.476C1411.25,596.88 1412.98,595.55 1415.5,594.485C1418.03,593.421 1421.42,592.623 1425.68,592.091C1429.94,591.558 1435.26,591.292 1441.64,591.292C1448.3,591.292 1453.75,591.558 1458.01,592.091C1462.27,592.623 1465.59,593.421 1467.99,594.485C1470.38,595.55 1472.11,596.88 1473.17,598.476C1474.24,600.073 1474.77,601.935 1474.77,604.064L1474.77,1137.28Z" style="fill:rgb(67,86,111);fill-rule:nonzero;"/>
                <path d="M1662.35,1137.28C1662.35,1139.4 1661.82,1141.2 1660.76,1142.66C1659.69,1144.13 1657.96,1145.39 1655.57,1146.45C1653.17,1147.52 1649.85,1148.32 1645.59,1148.85C1641.33,1149.38 1635.88,1149.65 1629.23,1149.65C1622.84,1149.65 1617.52,1149.38 1613.26,1148.85C1609.01,1148.32 1605.61,1147.52 1603.09,1146.45C1600.56,1145.39 1598.83,1144.13 1597.9,1142.66C1596.97,1141.2 1596.5,1139.4 1596.5,1137.28L1596.5,778.076C1596.5,776.213 1596.97,774.484 1597.9,772.887C1598.83,771.291 1600.56,769.961 1603.09,768.896C1605.61,767.832 1609.01,767.034 1613.26,766.502C1617.52,765.97 1622.84,765.703 1629.23,765.703C1635.88,765.703 1641.33,765.97 1645.59,766.502C1649.85,767.034 1653.17,767.832 1655.57,768.896C1657.96,769.961 1659.69,771.291 1660.76,772.887C1661.82,774.484 1662.35,776.213 1662.35,778.076L1662.35,1137.28ZM1669.94,656.746C1669.94,672.179 1667.01,682.689 1661.16,688.276C1655.3,693.864 1644.53,696.657 1628.83,696.657C1613.39,696.657 1602.82,693.93 1597.1,688.476C1591.38,683.021 1588.52,672.711 1588.52,657.545C1588.52,642.112 1591.44,631.603 1597.3,626.015C1603.15,620.427 1613.93,617.634 1629.63,617.634C1645.06,617.634 1655.63,620.361 1661.36,625.815C1667.08,631.27 1669.94,641.58 1669.94,656.746Z" style="fill:rgb(67,86,111);fill-rule:nonzero;"/>
                <path d="M2114.55,952.088C2114.55,983.485 2111.15,1011.69 2104.37,1036.7C2097.58,1061.71 2087.61,1082.93 2074.43,1100.36C2061.26,1117.79 2044.97,1131.22 2025.54,1140.67C2006.12,1150.11 1983.9,1154.84 1958.89,1154.84C1948.25,1154.84 1938.4,1153.77 1929.36,1151.64C1920.31,1149.51 1911.46,1146.19 1902.82,1141.66C1894.17,1137.14 1885.59,1131.42 1877.07,1124.5C1868.56,1117.59 1859.51,1109.47 1849.93,1100.16L1849.93,1279.76C1849.93,1281.89 1849.4,1283.75 1848.34,1285.35C1847.27,1286.94 1845.54,1288.27 1843.15,1289.34C1840.76,1290.4 1837.43,1291.2 1833.17,1291.73C1828.91,1292.26 1823.46,1292.53 1816.81,1292.53C1810.42,1292.53 1805.1,1292.26 1800.84,1291.73C1796.59,1291.2 1793.19,1290.4 1790.67,1289.34C1788.14,1288.27 1786.41,1286.94 1785.48,1285.35C1784.55,1283.75 1784.08,1281.89 1784.08,1279.76L1784.08,778.076C1784.08,775.681 1784.48,773.752 1785.28,772.289C1786.08,770.825 1787.67,769.562 1790.07,768.497C1792.46,767.433 1795.52,766.701 1799.25,766.302C1802.97,765.903 1807.5,765.703 1812.82,765.703C1818.4,765.703 1823,765.903 1826.59,766.302C1830.18,766.701 1833.17,767.433 1835.57,768.497C1837.96,769.562 1839.62,770.825 1840.56,772.289C1841.49,773.752 1841.95,775.681 1841.95,778.076L1841.95,826.368C1852.86,815.193 1863.37,805.481 1873.48,797.233C1883.59,788.985 1893.77,782.134 1904.01,776.679C1914.26,771.225 1924.77,767.1 1935.54,764.307C1946.32,761.513 1957.69,760.116 1969.67,760.116C1995.74,760.116 2017.96,765.171 2036.32,775.282C2054.68,785.393 2069.64,799.229 2081.22,816.79C2092.79,834.35 2101.24,854.772 2106.56,878.053C2111.88,901.334 2114.55,926.013 2114.55,952.088ZM2046.3,959.671C2046.3,941.312 2044.89,923.552 2042.08,906.39C2039.27,889.228 2034.45,873.995 2027.63,860.692C2020.8,847.388 2011.63,836.745 2000.12,828.763C1988.61,820.781 1974.28,816.79 1957.15,816.79C1948.58,816.79 1940.15,818.053 1931.85,820.581C1923.55,823.109 1915.12,827.1 1906.56,832.554C1897.99,838.009 1889.02,845.193 1879.65,854.106C1870.28,863.02 1860.37,873.995 1849.93,887.033L1849.93,1029.91C1868.14,1052 1885.41,1068.89 1901.74,1080.6C1918.07,1092.31 1935.2,1098.16 1953.14,1098.16C1969.73,1098.16 1983.99,1094.17 1995.9,1086.19C2007.81,1078.21 2017.45,1067.56 2024.81,1054.26C2032.18,1040.96 2037.6,1026.06 2041.08,1009.56C2044.56,993.063 2046.3,976.434 2046.3,959.671Z" style="fill:rgb(67,86,111);fill-rule:nonzero;"/>
                <path d="M2967.44,1136.88C2967.44,1139 2966.89,1140.87 2965.8,1142.46C2964.7,1144.06 2962.79,1145.32 2960.04,1146.26C2957.3,1147.19 2953.81,1147.98 2949.56,1148.65C2945.31,1149.32 2939.76,1149.65 2932.91,1149.65C2926.61,1149.65 2921.2,1149.32 2916.68,1148.65C2912.16,1147.98 2908.59,1147.19 2905.99,1146.26C2903.39,1145.32 2901.53,1144.06 2900.44,1142.46C2899.34,1140.87 2898.8,1139 2898.8,1136.88L2898.8,687.079L2898,687.079L2716,1138.87C2715.2,1140.73 2714.07,1142.33 2712.61,1143.66C2711.15,1144.99 2709.02,1146.12 2706.22,1147.05C2703.43,1147.98 2700.11,1148.65 2696.25,1149.05C2692.39,1149.45 2687.8,1149.65 2682.48,1149.65C2676.89,1149.65 2672.1,1149.38 2668.11,1148.85C2664.12,1148.32 2660.79,1147.59 2658.13,1146.65C2655.47,1145.72 2653.41,1144.59 2651.95,1143.26C2650.48,1141.93 2649.49,1140.47 2648.95,1138.87L2474.94,687.079L2474.54,687.079L2474.54,1136.88C2474.54,1139 2473.99,1140.87 2472.9,1142.46C2471.8,1144.06 2469.89,1145.32 2467.14,1146.26C2464.4,1147.19 2460.84,1147.98 2456.45,1148.65C2452.07,1149.32 2446.45,1149.65 2439.6,1149.65C2433.02,1149.65 2427.54,1149.32 2423.16,1148.65C2418.78,1147.98 2415.28,1147.19 2412.68,1146.26C2410.07,1145.32 2408.29,1144.06 2407.33,1142.46C2406.37,1140.87 2405.89,1139 2405.89,1136.88L2405.89,661.935C2405.89,650.76 2408.87,642.778 2414.81,637.988C2420.75,633.199 2427.37,630.804 2434.67,630.804L2476.82,630.804C2485.46,630.804 2493.03,631.603 2499.51,633.199C2506,634.795 2511.67,637.323 2516.53,640.782C2521.39,644.241 2525.45,648.631 2528.69,653.953C2531.93,659.274 2534.77,665.527 2537.2,672.711L2684.87,1046.68L2686.87,1046.68L2840.53,673.908C2843.5,665.926 2846.74,659.141 2850.26,653.554C2853.77,647.966 2857.62,643.509 2861.82,640.183C2866.01,636.857 2870.67,634.463 2875.8,632.999C2880.94,631.536 2886.89,630.804 2893.64,630.804L2937.84,630.804C2941.9,630.804 2945.75,631.403 2949.4,632.6C2953.05,633.798 2956.16,635.66 2958.72,638.188C2961.29,640.716 2963.39,643.908 2965.01,647.766C2966.63,651.625 2967.44,656.347 2967.44,661.935L2967.44,1136.88Z" style="fill:rgb(67,86,111);fill-rule:nonzero;"/>
                <path d="M3355.38,1082.6C3355.38,1087.12 3355.24,1091.05 3354.98,1094.37C3354.71,1097.7 3354.25,1100.49 3353.58,1102.75C3352.92,1105.01 3352.12,1107.01 3351.19,1108.74C3350.26,1110.47 3348.13,1113 3344.8,1116.32C3341.48,1119.65 3335.82,1123.77 3327.84,1128.69C3319.86,1133.62 3310.88,1138.01 3300.9,1141.87C3290.92,1145.72 3280.08,1148.85 3268.37,1151.24C3256.66,1153.64 3244.56,1154.84 3232.05,1154.84C3206.24,1154.84 3183.36,1150.58 3163.41,1142.06C3143.45,1133.55 3126.75,1121.11 3113.32,1104.75C3099.88,1088.38 3089.64,1068.3 3082.59,1044.48C3075.53,1020.67 3072.01,993.196 3072.01,962.066C3072.01,926.678 3076.33,896.279 3084.98,870.869C3093.63,845.459 3105.47,824.639 3120.5,808.408C3135.53,792.178 3153.23,780.138 3173.58,772.289C3193.94,764.44 3215.95,760.515 3239.64,760.515C3251.08,760.515 3262.19,761.579 3272.96,763.708C3283.74,765.837 3293.65,768.63 3302.7,772.089C3311.74,775.548 3319.79,779.539 3326.84,784.063C3333.89,788.586 3339.01,792.444 3342.21,795.637C3345.4,798.83 3347.6,801.357 3348.79,803.22C3349.99,805.082 3350.99,807.277 3351.79,809.805C3352.58,812.333 3353.12,815.193 3353.38,818.386C3353.65,821.579 3353.78,825.57 3353.78,830.359C3353.78,840.736 3352.58,847.987 3350.19,852.111C3347.8,856.235 3344.87,858.297 3341.41,858.297C3337.42,858.297 3332.83,856.102 3327.64,851.712C3322.45,847.322 3315.87,842.466 3307.88,837.144C3299.9,831.823 3290.26,826.967 3278.95,822.577C3267.64,818.186 3254.27,815.991 3238.84,815.991C3207.18,815.991 3182.9,828.164 3166,852.51C3149.1,876.856 3140.66,912.177 3140.66,958.474C3140.66,981.622 3142.85,1001.91 3147.24,1019.34C3151.63,1036.77 3158.08,1051.33 3166.6,1063.04C3175.11,1074.75 3185.56,1083.46 3197.93,1089.18C3210.3,1094.9 3224.47,1097.76 3240.43,1097.76C3255.6,1097.76 3268.9,1095.37 3280.35,1090.58C3291.79,1085.79 3301.7,1080.54 3310.08,1074.81C3318.46,1069.09 3325.51,1063.9 3331.23,1059.25C3336.95,1054.59 3341.41,1052.27 3344.6,1052.27C3346.46,1052.27 3348.06,1052.8 3349.39,1053.86C3350.72,1054.92 3351.85,1056.72 3352.78,1059.25C3353.72,1061.78 3354.38,1064.97 3354.78,1068.83C3355.18,1072.69 3355.38,1077.28 3355.38,1082.6Z" style="fill:rgb(67,86,111);fill-rule:nonzero;"/>
                <path d="M3519.01,1136.88C3519.01,1139 3518.48,1140.87 3517.42,1142.46C3516.35,1144.06 3514.49,1145.32 3511.83,1146.26C3509.17,1147.19 3505.64,1147.98 3501.25,1148.65C3496.86,1149.32 3491.34,1149.65 3484.69,1149.65C3478.3,1149.65 3472.85,1149.32 3468.33,1148.65C3463.8,1147.98 3460.21,1147.19 3457.55,1146.26C3454.89,1145.32 3453.03,1144.06 3451.96,1142.46C3450.9,1140.87 3450.37,1139 3450.37,1136.88L3450.37,641.181C3450.37,639.053 3450.97,637.19 3452.16,635.594C3453.36,633.997 3455.36,632.733 3458.15,631.802C3460.94,630.871 3464.53,630.073 3468.93,629.407C3473.32,628.742 3478.57,628.41 3484.69,628.41C3491.34,628.41 3496.86,628.742 3501.25,629.407C3505.64,630.073 3509.17,630.871 3511.83,631.802C3514.49,632.733 3516.35,633.997 3517.42,635.594C3518.48,637.19 3519.01,639.053 3519.01,641.181L3519.01,1136.88Z" style="fill:rgb(67,86,111);fill-rule:nonzero;"/>
                <path d="M3714.58,1137.28C3714.58,1139.4 3714.05,1141.2 3712.98,1142.66C3711.92,1144.13 3710.19,1145.39 3707.79,1146.45C3705.4,1147.52 3702.07,1148.32 3697.81,1148.85C3693.56,1149.38 3688.1,1149.65 3681.45,1149.65C3675.07,1149.65 3669.74,1149.38 3665.49,1148.85C3661.23,1148.32 3657.84,1147.52 3655.31,1146.45C3652.78,1145.39 3651.05,1144.13 3650.12,1142.66C3649.19,1141.2 3648.72,1139.4 3648.72,1137.28L3648.72,604.064C3648.72,601.935 3649.19,600.073 3650.12,598.476C3651.05,596.88 3652.78,595.55 3655.31,594.485C3657.84,593.421 3661.23,592.623 3665.49,592.091C3669.74,591.558 3675.07,591.292 3681.45,591.292C3688.1,591.292 3693.56,591.558 3697.81,592.091C3702.07,592.623 3705.4,593.421 3707.79,594.485C3710.19,595.55 3711.92,596.88 3712.98,598.476C3714.05,600.073 3714.58,601.935 3714.58,604.064L3714.58,1137.28Z" style="fill:rgb(67,86,111);fill-rule:nonzero;"/>
                <path d="M4046.24,801.623C4046.24,807.477 4046.1,812.399 4045.84,816.39C4045.57,820.382 4045.04,823.508 4044.24,825.77C4043.44,828.031 4042.45,829.761 4041.25,830.958C4040.05,832.155 4038.39,832.754 4036.26,832.754C4034.13,832.754 4031.54,832.155 4028.48,830.958C4025.42,829.761 4021.96,828.563 4018.1,827.366C4014.24,826.169 4009.92,825.038 4005.13,823.974C4000.34,822.909 3995.15,822.377 3989.56,822.377C3982.91,822.377 3976.39,823.707 3970.01,826.368C3963.62,829.029 3956.9,833.419 3949.85,839.539C3942.8,845.659 3935.42,853.774 3927.7,863.885C3919.99,873.995 3911.47,886.368 3902.16,901.002L3902.16,1137.28C3902.16,1139.4 3901.63,1141.2 3900.56,1142.66C3899.5,1144.13 3897.77,1145.39 3895.37,1146.45C3892.98,1147.52 3889.65,1148.32 3885.4,1148.85C3881.14,1149.38 3875.68,1149.65 3869.03,1149.65C3862.65,1149.65 3857.33,1149.38 3853.07,1148.85C3848.81,1148.32 3845.42,1147.52 3842.89,1146.45C3840.36,1145.39 3838.63,1144.13 3837.7,1142.66C3836.77,1141.2 3836.31,1139.4 3836.31,1137.28L3836.31,778.076C3836.31,775.947 3836.7,774.151 3837.5,772.688C3838.3,771.225 3839.9,769.894 3842.29,768.697C3844.69,767.499 3847.75,766.701 3851.47,766.302C3855.2,765.903 3860.12,765.703 3866.24,765.703C3872.09,765.703 3876.95,765.903 3880.81,766.302C3884.66,766.701 3887.66,767.499 3889.79,768.697C3891.91,769.894 3893.45,771.225 3894.38,772.688C3895.31,774.151 3895.77,775.947 3895.77,778.076L3895.77,830.359C3905.62,815.991 3914.86,804.284 3923.51,795.238C3932.16,786.191 3940.34,779.074 3948.06,773.885C3955.77,768.697 3963.42,765.105 3971.01,763.109C3978.59,761.114 3986.24,760.116 3993.95,760.116C3997.41,760.116 4001.34,760.316 4005.73,760.715C4010.12,761.114 4014.71,761.845 4019.5,762.91C4024.29,763.974 4028.61,765.171 4032.47,766.502C4036.33,767.832 4039.05,769.162 4040.65,770.493C4042.25,771.823 4043.31,773.087 4043.84,774.284C4044.38,775.482 4044.84,777.012 4045.24,778.874C4045.64,780.737 4045.91,783.464 4046.04,787.056C4046.17,790.648 4046.24,795.504 4046.24,801.623Z" style="fill:rgb(67,86,111);fill-rule:nonzero;"/>
                <path d="M4442.15,953.684C4442.15,982.952 4438.3,1009.89 4430.58,1034.5C4422.86,1059.12 4411.36,1080.34 4396.06,1098.16C4380.76,1115.99 4361.6,1129.89 4338.59,1139.87C4315.57,1149.85 4288.9,1154.84 4258.56,1154.84C4229.03,1154.84 4203.29,1150.45 4181.34,1141.66C4159.39,1132.88 4141.09,1120.11 4126.46,1103.35C4111.82,1086.59 4100.92,1066.23 4093.73,1042.29C4086.55,1018.34 4082.96,991.201 4082.96,960.868C4082.96,931.6 4086.75,904.66 4094.33,880.049C4101.91,855.437 4113.35,834.217 4128.65,816.39C4143.95,798.564 4163.04,784.728 4185.93,774.883C4208.81,765.038 4235.55,760.116 4266.15,760.116C4295.68,760.116 4321.42,764.506 4343.38,773.287C4365.33,782.067 4383.62,794.839 4398.25,811.601C4412.89,828.364 4423.86,848.718 4431.18,872.665C4438.5,896.612 4442.15,923.618 4442.15,953.684ZM4373.91,958.075C4373.91,938.651 4372.09,920.292 4368.47,902.997C4364.84,885.703 4358.87,870.536 4350.55,857.499C4342.22,844.461 4330.95,834.151 4316.72,826.568C4302.49,818.985 4284.77,815.193 4263.56,815.193C4243.96,815.193 4227.11,818.652 4213.02,825.57C4198.92,832.488 4187.31,842.266 4178.18,854.905C4169.06,867.543 4162.28,882.51 4157.85,899.804C4153.42,917.099 4151.2,935.99 4151.2,956.478C4151.2,976.168 4153.02,994.66 4156.64,1011.95C4160.27,1029.25 4166.31,1044.35 4174.76,1057.25C4183.22,1070.16 4194.56,1080.4 4208.79,1087.99C4223.02,1095.57 4240.74,1099.36 4261.95,1099.36C4281.28,1099.36 4298.06,1095.9 4312.29,1088.98C4326.52,1082.07 4338.2,1072.35 4347.32,1059.85C4356.45,1047.34 4363.16,1032.44 4367.46,1015.15C4371.76,997.853 4373.91,978.828 4373.91,958.075Z" style="fill:rgb(67,86,111);fill-rule:nonzero;"/>
                <path d="M4698.38,1147.25L4650.49,1279.36C4648.89,1283.62 4644.84,1286.88 4638.32,1289.14C4631.8,1291.4 4621.89,1292.53 4608.58,1292.53C4601.67,1292.53 4596.08,1292.2 4591.82,1291.53C4587.56,1290.87 4584.3,1289.74 4582.04,1288.14C4579.78,1286.54 4578.52,1284.41 4578.25,1281.75C4577.98,1279.09 4578.65,1275.9 4580.25,1272.17L4629.74,1147.25C4627.34,1146.19 4625.08,1144.46 4622.95,1142.06C4620.82,1139.67 4619.36,1137.14 4618.56,1134.48L4490.45,791.247C4488.32,785.659 4487.25,781.269 4487.25,778.076C4487.25,774.883 4488.32,772.355 4490.45,770.493C4492.58,768.63 4496.03,767.366 4500.82,766.701C4505.61,766.036 4512,765.703 4519.98,765.703C4527.96,765.703 4534.22,765.903 4538.74,766.302C4543.26,766.701 4546.86,767.433 4549.52,768.497C4552.18,769.562 4554.11,771.091 4555.3,773.087C4556.5,775.083 4557.76,777.81 4559.09,781.269L4661.66,1069.43L4662.86,1069.43L4761.84,779.672C4763.44,774.617 4765.37,771.358 4767.63,769.894C4769.89,768.431 4773.28,767.366 4777.81,766.701C4782.33,766.036 4788.85,765.703 4797.36,765.703C4804.81,765.703 4810.93,766.036 4815.72,766.701C4820.51,767.366 4824.04,768.63 4826.3,770.493C4828.56,772.355 4829.69,774.883 4829.69,778.076C4829.69,781.269 4828.89,785.26 4827.3,790.049L4698.38,1147.25Z" style="fill:rgb(67,86,111);fill-rule:nonzero;"/>
            </g>
        </g>
    </g>
    <g transform="matrix(0.879075,0,0,0.879075,45.8747,-547.991)">
        <g id="furniture">
            <g>
                <path d="M408.864,2077.29C408.864,2079.13 408.767,2080.73 408.573,2082.09C408.379,2083.45 408.039,2084.54 407.553,2085.37C407.068,2086.19 406.51,2086.8 405.879,2087.19C405.248,2087.58 404.592,2087.77 403.913,2087.77L334.888,2087.77L334.888,2151.85L400.127,2151.85C400.806,2151.85 401.462,2152.01 402.093,2152.36C402.724,2152.7 403.282,2153.25 403.767,2154.03C404.253,2154.81 404.592,2155.85 404.787,2157.16C404.981,2158.47 405.078,2160.15 405.078,2162.18C405.078,2164.03 404.981,2165.61 404.787,2166.92C404.592,2168.23 404.253,2169.3 403.767,2170.12C403.282,2170.95 402.724,2171.58 402.093,2172.01C401.462,2172.45 400.806,2172.67 400.127,2172.67L334.888,2172.67L334.888,2251.16C334.888,2251.84 334.694,2252.49 334.306,2253.12C333.918,2253.76 333.238,2254.24 332.267,2254.58C331.296,2254.92 330.034,2255.21 328.481,2255.45C326.928,2255.7 324.889,2255.82 322.365,2255.82C320.035,2255.82 318.045,2255.7 316.395,2255.45C314.744,2255.21 313.434,2254.92 312.463,2254.58C311.492,2254.24 310.812,2253.76 310.424,2253.12C310.036,2252.49 309.842,2251.84 309.842,2251.16L309.842,2076.7C309.842,2072.92 310.837,2070.27 312.827,2068.77C314.817,2067.26 316.928,2066.51 319.161,2066.51L403.913,2066.51C404.592,2066.51 405.248,2066.7 405.879,2067.09C406.51,2067.48 407.068,2068.11 407.553,2068.99C408.039,2069.86 408.379,2071 408.573,2072.41C408.767,2073.82 408.864,2075.44 408.864,2077.29Z" style="fill-rule:nonzero;"/>
                <path d="M556.378,2251.3C556.378,2252.08 556.208,2252.74 555.869,2253.27C555.529,2253.8 554.922,2254.26 554.048,2254.65C553.175,2255.04 552.034,2255.33 550.626,2255.53C549.219,2255.72 547.495,2255.82 545.457,2255.82C543.224,2255.82 541.404,2255.72 539.996,2255.53C538.588,2255.33 537.472,2255.04 536.647,2254.65C535.821,2254.26 535.263,2253.8 534.972,2253.27C534.681,2252.74 534.535,2252.08 534.535,2251.3L534.535,2233.98C527.06,2242.23 519.682,2248.25 512.401,2252.03C505.12,2255.82 497.742,2257.71 490.266,2257.71C481.529,2257.71 474.175,2256.26 468.205,2253.34C462.234,2250.43 457.404,2246.47 453.715,2241.47C450.026,2236.47 447.381,2230.65 445.779,2224C444.177,2217.35 443.376,2209.27 443.376,2199.76L443.376,2120.24C443.376,2119.47 443.546,2118.81 443.886,2118.28C444.226,2117.75 444.881,2117.26 445.852,2116.82C446.823,2116.39 448.085,2116.1 449.638,2115.95C451.191,2115.8 453.133,2115.73 455.463,2115.73C457.793,2115.73 459.734,2115.8 461.288,2115.95C462.841,2116.1 464.079,2116.39 465.001,2116.82C465.923,2117.26 466.579,2117.75 466.967,2118.28C467.355,2118.81 467.549,2119.47 467.549,2120.24L467.549,2196.55C467.549,2204.22 468.108,2210.36 469.224,2214.97C470.34,2219.58 472.039,2223.51 474.321,2226.77C476.602,2230.02 479.49,2232.54 482.985,2234.34C486.48,2236.14 490.558,2237.03 495.217,2237.03C501.236,2237.03 507.231,2234.9 513.202,2230.63C519.172,2226.36 525.507,2220.09 532.205,2211.84L532.205,2120.24C532.205,2119.47 532.375,2118.81 532.715,2118.28C533.055,2117.75 533.71,2117.26 534.681,2116.82C535.652,2116.39 536.889,2116.1 538.394,2115.95C539.899,2115.8 541.865,2115.73 544.292,2115.73C546.622,2115.73 548.563,2115.8 550.117,2115.95C551.67,2116.1 552.883,2116.39 553.757,2116.82C554.631,2117.26 555.286,2117.75 555.723,2118.28C556.16,2118.81 556.378,2119.47 556.378,2120.24L556.378,2251.3Z" style="fill-rule:nonzero;"/>
                <path d="M677.39,2128.84C677.39,2130.97 677.341,2132.77 677.244,2134.22C677.147,2135.68 676.953,2136.82 676.661,2137.65C676.37,2138.47 676.006,2139.1 675.569,2139.54C675.132,2139.98 674.526,2140.2 673.749,2140.2C672.972,2140.2 672.026,2139.98 670.909,2139.54C669.793,2139.1 668.531,2138.67 667.123,2138.23C665.716,2137.79 664.138,2137.38 662.391,2136.99C660.643,2136.6 658.75,2136.41 656.711,2136.41C654.284,2136.41 651.906,2136.89 649.576,2137.87C647.246,2138.84 644.795,2140.44 642.222,2142.67C639.649,2144.9 636.955,2147.87 634.14,2151.55C631.325,2155.24 628.218,2159.76 624.82,2165.1L624.82,2251.3C624.82,2252.08 624.626,2252.74 624.238,2253.27C623.85,2253.8 623.218,2254.26 622.345,2254.65C621.471,2255.04 620.258,2255.33 618.704,2255.53C617.151,2255.72 615.161,2255.82 612.734,2255.82C610.404,2255.82 608.462,2255.72 606.909,2255.53C605.356,2255.33 604.118,2255.04 603.196,2254.65C602.273,2254.26 601.642,2253.8 601.303,2253.27C600.963,2252.74 600.793,2252.08 600.793,2251.3L600.793,2120.24C600.793,2119.47 600.938,2118.81 601.23,2118.28C601.521,2117.75 602.103,2117.26 602.977,2116.82C603.851,2116.39 604.967,2116.1 606.326,2115.95C607.686,2115.8 609.482,2115.73 611.714,2115.73C613.85,2115.73 615.622,2115.8 617.03,2115.95C618.437,2116.1 619.529,2116.39 620.306,2116.82C621.083,2117.26 621.641,2117.75 621.981,2118.28C622.321,2118.81 622.49,2119.47 622.49,2120.24L622.49,2139.32C626.082,2134.08 629.456,2129.81 632.611,2126.51C635.766,2123.21 638.751,2120.61 641.567,2118.72C644.382,2116.82 647.173,2115.51 649.94,2114.78C652.707,2114.06 655.498,2113.69 658.313,2113.69C659.575,2113.69 661.007,2113.76 662.609,2113.91C664.211,2114.06 665.886,2114.32 667.633,2114.71C669.38,2115.1 670.958,2115.54 672.366,2116.02C673.773,2116.51 674.768,2116.99 675.351,2117.48C675.933,2117.96 676.322,2118.43 676.516,2118.86C676.71,2119.3 676.88,2119.86 677.026,2120.54C677.171,2121.22 677.268,2122.21 677.317,2123.52C677.365,2124.83 677.39,2126.6 677.39,2128.84Z" style="fill-rule:nonzero;"/>
                <path d="M817.623,2251.3C817.623,2252.08 817.429,2252.74 817.04,2253.27C816.652,2253.8 816.021,2254.26 815.147,2254.65C814.274,2255.04 813.06,2255.33 811.507,2255.53C809.953,2255.72 808.012,2255.82 805.682,2255.82C803.255,2255.82 801.265,2255.72 799.711,2255.53C798.158,2255.33 796.945,2255.04 796.071,2254.65C795.197,2254.26 794.566,2253.8 794.178,2253.27C793.79,2252.74 793.595,2252.08 793.595,2251.3L793.595,2174.56C793.595,2167.09 793.013,2161.07 791.848,2156.51C790.683,2151.94 788.984,2148.01 786.751,2144.71C784.518,2141.41 781.63,2138.89 778.087,2137.14C774.543,2135.39 770.442,2134.52 765.782,2134.52C759.763,2134.52 753.744,2136.65 747.725,2140.92C741.706,2145.2 735.395,2151.46 728.794,2159.71L728.794,2251.3C728.794,2252.08 728.6,2252.74 728.211,2253.27C727.823,2253.8 727.192,2254.26 726.318,2254.65C725.445,2255.04 724.231,2255.33 722.678,2255.53C721.125,2255.72 719.134,2255.82 716.707,2255.82C714.377,2255.82 712.436,2255.72 710.882,2255.53C709.329,2255.33 708.091,2255.04 707.169,2254.65C706.247,2254.26 705.616,2253.8 705.276,2253.27C704.936,2252.74 704.766,2252.08 704.766,2251.3L704.766,2120.24C704.766,2119.47 704.912,2118.81 705.203,2118.28C705.495,2117.75 706.077,2117.26 706.951,2116.82C707.824,2116.39 708.941,2116.1 710.3,2115.95C711.659,2115.8 713.455,2115.73 715.688,2115.73C717.824,2115.73 719.595,2115.8 721.003,2115.95C722.411,2116.1 723.503,2116.39 724.28,2116.82C725.056,2117.26 725.615,2117.75 725.954,2118.28C726.294,2118.81 726.464,2119.47 726.464,2120.24L726.464,2137.57C733.842,2129.32 741.196,2123.28 748.526,2119.44C755.855,2115.61 763.258,2113.69 770.733,2113.69C779.47,2113.69 786.824,2115.17 792.794,2118.13C798.765,2121.1 803.595,2125.05 807.284,2130C810.973,2134.95 813.618,2140.75 815.22,2147.4C816.822,2154.05 817.623,2162.04 817.623,2171.36L817.623,2251.3Z" style="fill-rule:nonzero;"/>
                <path d="M885.482,2251.3C885.482,2252.08 885.288,2252.74 884.9,2253.27C884.512,2253.8 883.881,2254.26 883.007,2254.65C882.133,2255.04 880.92,2255.33 879.366,2255.53C877.813,2255.72 875.823,2255.82 873.396,2255.82C871.066,2255.82 869.124,2255.72 867.571,2255.53C866.018,2255.33 864.78,2255.04 863.858,2254.65C862.935,2254.26 862.304,2253.8 861.965,2253.27C861.625,2252.74 861.455,2252.08 861.455,2251.3L861.455,2120.24C861.455,2119.57 861.625,2118.93 861.965,2118.35C862.304,2117.77 862.935,2117.28 863.858,2116.9C864.78,2116.51 866.018,2116.22 867.571,2116.02C869.124,2115.83 871.066,2115.73 873.396,2115.73C875.823,2115.73 877.813,2115.83 879.366,2116.02C880.92,2116.22 882.133,2116.51 883.007,2116.9C883.881,2117.28 884.512,2117.77 884.9,2118.35C885.288,2118.93 885.482,2119.57 885.482,2120.24L885.482,2251.3ZM888.249,2075.98C888.249,2081.61 887.181,2085.44 885.046,2087.48C882.91,2089.52 878.978,2090.54 873.25,2090.54C867.619,2090.54 863.761,2089.54 861.673,2087.55C859.586,2085.56 858.542,2081.8 858.542,2076.27C858.542,2070.64 859.61,2066.8 861.746,2064.76C863.882,2062.72 867.814,2061.71 873.541,2061.71C879.172,2061.71 883.031,2062.7 885.118,2064.69C887.206,2066.68 888.249,2070.44 888.249,2075.98Z" style="fill-rule:nonzero;"/>
                <path d="M998.048,2241.69C998.048,2244.51 997.853,2246.74 997.465,2248.39C997.077,2250.04 996.494,2251.26 995.718,2252.03C994.941,2252.81 993.776,2253.54 992.223,2254.22C990.669,2254.9 988.898,2255.45 986.908,2255.89C984.917,2256.33 982.806,2256.69 980.573,2256.98C978.34,2257.28 976.107,2257.42 973.874,2257.42C967.079,2257.42 961.254,2256.52 956.4,2254.73C951.546,2252.93 947.566,2250.21 944.459,2246.57C941.352,2242.93 939.095,2238.32 937.688,2232.74C936.28,2227.16 935.576,2220.58 935.576,2213.01L935.576,2136.41L917.228,2136.41C915.772,2136.41 914.607,2135.63 913.733,2134.08C912.859,2132.53 912.422,2130 912.422,2126.51C912.422,2124.66 912.544,2123.11 912.786,2121.85C913.029,2120.59 913.345,2119.54 913.733,2118.72C914.121,2117.89 914.631,2117.31 915.262,2116.97C915.893,2116.63 916.597,2116.46 917.373,2116.46L935.576,2116.46L935.576,2085.3C935.576,2084.62 935.746,2083.99 936.086,2083.4C936.426,2082.82 937.057,2082.31 937.979,2081.87C938.901,2081.44 940.139,2081.12 941.692,2080.93C943.245,2080.73 945.187,2080.64 947.517,2080.64C949.944,2080.64 951.934,2080.73 953.487,2080.93C955.041,2081.12 956.254,2081.44 957.128,2081.87C958.002,2082.31 958.633,2082.82 959.021,2083.4C959.409,2083.99 959.604,2084.62 959.604,2085.3L959.604,2116.46L993.242,2116.46C994.019,2116.46 994.698,2116.63 995.281,2116.97C995.863,2117.31 996.373,2117.89 996.81,2118.72C997.247,2119.54 997.562,2120.59 997.756,2121.85C997.951,2123.11 998.048,2124.66 998.048,2126.51C998.048,2130 997.611,2132.53 996.737,2134.08C995.863,2135.63 994.698,2136.41 993.242,2136.41L959.604,2136.41L959.604,2209.51C959.604,2218.54 960.938,2225.36 963.608,2229.97C966.278,2234.58 971.059,2236.89 977.952,2236.89C980.185,2236.89 982.175,2236.67 983.922,2236.23C985.67,2235.8 987.223,2235.34 988.582,2234.85C989.941,2234.36 991.106,2233.9 992.077,2233.47C993.048,2233.03 993.922,2232.81 994.698,2232.81C995.184,2232.81 995.645,2232.93 996.082,2233.18C996.519,2233.42 996.858,2233.88 997.101,2234.56C997.344,2235.24 997.562,2236.16 997.756,2237.33C997.951,2238.49 998.048,2239.95 998.048,2241.69Z" style="fill-rule:nonzero;"/>
                <path d="M1142.07,2251.3C1142.07,2252.08 1141.9,2252.74 1141.56,2253.27C1141.22,2253.8 1140.61,2254.26 1139.74,2254.65C1138.86,2255.04 1137.72,2255.33 1136.32,2255.53C1134.91,2255.72 1133.18,2255.82 1131.14,2255.82C1128.91,2255.82 1127.09,2255.72 1125.68,2255.53C1124.28,2255.33 1123.16,2255.04 1122.34,2254.65C1121.51,2254.26 1120.95,2253.8 1120.66,2253.27C1120.37,2252.74 1120.22,2252.08 1120.22,2251.3L1120.22,2233.98C1112.75,2242.23 1105.37,2248.25 1098.09,2252.03C1090.81,2255.82 1083.43,2257.71 1075.95,2257.71C1067.22,2257.71 1059.86,2256.26 1053.89,2253.34C1047.92,2250.43 1043.09,2246.47 1039.4,2241.47C1035.71,2236.47 1033.07,2230.65 1031.47,2224C1029.87,2217.35 1029.07,2209.27 1029.07,2199.76L1029.07,2120.24C1029.07,2119.47 1029.24,2118.81 1029.58,2118.28C1029.91,2117.75 1030.57,2117.26 1031.54,2116.82C1032.51,2116.39 1033.77,2116.1 1035.33,2115.95C1036.88,2115.8 1038.82,2115.73 1041.15,2115.73C1043.48,2115.73 1045.42,2115.8 1046.98,2115.95C1048.53,2116.1 1049.77,2116.39 1050.69,2116.82C1051.61,2117.26 1052.27,2117.75 1052.66,2118.28C1053.04,2118.81 1053.24,2119.47 1053.24,2120.24L1053.24,2196.55C1053.24,2204.22 1053.8,2210.36 1054.91,2214.97C1056.03,2219.58 1057.73,2223.51 1060.01,2226.77C1062.29,2230.02 1065.18,2232.54 1068.67,2234.34C1072.17,2236.14 1076.25,2237.03 1080.91,2237.03C1086.92,2237.03 1092.92,2234.9 1098.89,2230.63C1104.86,2226.36 1111.19,2220.09 1117.89,2211.84L1117.89,2120.24C1117.89,2119.47 1118.06,2118.81 1118.4,2118.28C1118.74,2117.75 1119.4,2117.26 1120.37,2116.82C1121.34,2116.39 1122.58,2116.1 1124.08,2115.95C1125.59,2115.8 1127.55,2115.73 1129.98,2115.73C1132.31,2115.73 1134.25,2115.8 1135.81,2115.95C1137.36,2116.1 1138.57,2116.39 1139.45,2116.82C1140.32,2117.26 1140.98,2117.75 1141.41,2118.28C1141.85,2118.81 1142.07,2119.47 1142.07,2120.24L1142.07,2251.3Z" style="fill-rule:nonzero;"/>
                <path d="M1263.08,2128.84C1263.08,2130.97 1263.03,2132.77 1262.93,2134.22C1262.84,2135.68 1262.64,2136.82 1262.35,2137.65C1262.06,2138.47 1261.69,2139.1 1261.26,2139.54C1260.82,2139.98 1260.21,2140.2 1259.44,2140.2C1258.66,2140.2 1257.71,2139.98 1256.6,2139.54C1255.48,2139.1 1254.22,2138.67 1252.81,2138.23C1251.4,2137.79 1249.83,2137.38 1248.08,2136.99C1246.33,2136.6 1244.44,2136.41 1242.4,2136.41C1239.97,2136.41 1237.6,2136.89 1235.27,2137.87C1232.93,2138.84 1230.48,2140.44 1227.91,2142.67C1225.34,2144.9 1222.64,2147.87 1219.83,2151.55C1217.01,2155.24 1213.91,2159.76 1210.51,2165.1L1210.51,2251.3C1210.51,2252.08 1210.32,2252.74 1209.93,2253.27C1209.54,2253.8 1208.91,2254.26 1208.03,2254.65C1207.16,2255.04 1205.95,2255.33 1204.39,2255.53C1202.84,2255.72 1200.85,2255.82 1198.42,2255.82C1196.09,2255.82 1194.15,2255.72 1192.6,2255.53C1191.04,2255.33 1189.81,2255.04 1188.88,2254.65C1187.96,2254.26 1187.33,2253.8 1186.99,2253.27C1186.65,2252.74 1186.48,2252.08 1186.48,2251.3L1186.48,2120.24C1186.48,2119.47 1186.63,2118.81 1186.92,2118.28C1187.21,2117.75 1187.79,2117.26 1188.67,2116.82C1189.54,2116.39 1190.66,2116.1 1192.02,2115.95C1193.37,2115.8 1195.17,2115.73 1197.4,2115.73C1199.54,2115.73 1201.31,2115.8 1202.72,2115.95C1204.13,2116.1 1205.22,2116.39 1206,2116.82C1206.77,2117.26 1207.33,2117.75 1207.67,2118.28C1208.01,2118.81 1208.18,2119.47 1208.18,2120.24L1208.18,2139.32C1211.77,2134.08 1215.14,2129.81 1218.3,2126.51C1221.45,2123.21 1224.44,2120.61 1227.26,2118.72C1230.07,2116.82 1232.86,2115.51 1235.63,2114.78C1238.39,2114.06 1241.19,2113.69 1244,2113.69C1245.26,2113.69 1246.7,2113.76 1248.3,2113.91C1249.9,2114.06 1251.57,2114.32 1253.32,2114.71C1255.07,2115.1 1256.65,2115.54 1258.05,2116.02C1259.46,2116.51 1260.46,2116.99 1261.04,2117.48C1261.62,2117.96 1262.01,2118.43 1262.2,2118.86C1262.4,2119.3 1262.57,2119.86 1262.71,2120.54C1262.86,2121.22 1262.96,2122.21 1263.01,2123.52C1263.05,2124.83 1263.08,2126.6 1263.08,2128.84Z" style="fill-rule:nonzero;"/>
                <path d="M1398.36,2180.1C1398.36,2183.88 1397.41,2186.58 1395.51,2188.18C1393.61,2189.78 1391.44,2190.58 1389,2190.58L1302.69,2190.58C1302.69,2197.86 1303.42,2204.41 1304.88,2210.24C1306.35,2216.06 1308.78,2221.06 1312.2,2225.24C1315.61,2229.41 1320.05,2232.62 1325.52,2234.85C1330.98,2237.08 1337.66,2238.2 1345.56,2238.2C1351.81,2238.2 1357.37,2237.69 1362.24,2236.67C1367.12,2235.65 1371.34,2234.51 1374.9,2233.25C1378.46,2231.99 1381.39,2230.85 1383.68,2229.83C1385.97,2228.81 1387.71,2228.3 1388.88,2228.3C1389.56,2228.3 1390.17,2228.47 1390.7,2228.81C1391.24,2229.15 1391.66,2229.66 1391.95,2230.34C1392.24,2231.01 1392.46,2231.96 1392.61,2233.18C1392.75,2234.39 1392.83,2235.87 1392.83,2237.62C1392.83,2238.88 1392.78,2239.97 1392.68,2240.89C1392.58,2241.82 1392.46,2242.64 1392.32,2243.37C1392.17,2244.1 1391.93,2244.75 1391.59,2245.33C1391.25,2245.92 1390.81,2246.47 1390.28,2247.01C1389.74,2247.54 1388.17,2248.42 1385.55,2249.63C1382.92,2250.84 1379.53,2252.03 1375.35,2253.2C1371.18,2254.36 1366.35,2255.41 1360.86,2256.33C1355.38,2257.25 1349.53,2257.71 1343.32,2257.71C1332.54,2257.71 1323.1,2256.21 1314.99,2253.2C1306.89,2250.19 1300.07,2245.72 1294.53,2239.8C1289,2233.88 1284.82,2226.45 1282.01,2217.52C1279.19,2208.59 1277.79,2198.2 1277.79,2186.36C1277.79,2175.1 1279.24,2164.97 1282.15,2155.99C1285.07,2147.01 1289.27,2139.39 1294.75,2133.13C1300.24,2126.87 1306.86,2122.07 1314.63,2118.72C1322.39,2115.37 1331.08,2113.69 1340.69,2113.69C1350.99,2113.69 1359.75,2115.34 1366.98,2118.64C1374.21,2121.94 1380.16,2126.39 1384.82,2131.97C1389.48,2137.55 1392.9,2144.1 1395.08,2151.63C1397.27,2159.15 1398.36,2167.18 1398.36,2175.73L1398.36,2180.1ZM1374.19,2172.96C1374.48,2160.34 1371.67,2150.44 1365.76,2143.25C1359.85,2136.07 1351.09,2132.48 1339.46,2132.48C1333.51,2132.48 1328.28,2133.59 1323.79,2135.83C1319.29,2138.06 1315.53,2141.02 1312.5,2144.71C1309.48,2148.4 1307.13,2152.7 1305.47,2157.6C1303.81,2162.5 1302.88,2167.62 1302.69,2172.96L1374.19,2172.96Z" style="fill-rule:nonzero;"/>
                <path d="M1709.99,2251.16C1709.99,2251.94 1709.79,2252.62 1709.39,2253.2C1708.99,2253.78 1708.29,2254.24 1707.29,2254.58C1706.29,2254.92 1705.02,2255.21 1703.47,2255.45C1701.92,2255.7 1699.89,2255.82 1697.39,2255.82C1695.09,2255.82 1693.12,2255.7 1691.47,2255.45C1689.82,2255.21 1688.52,2254.92 1687.57,2254.58C1686.62,2254.24 1685.94,2253.78 1685.54,2253.2C1685.14,2252.62 1684.94,2251.94 1684.94,2251.16L1684.94,2087.04L1684.65,2087.04L1618.25,2251.89C1617.96,2252.57 1617.55,2253.15 1617.01,2253.63C1616.48,2254.12 1615.7,2254.53 1614.68,2254.87C1613.66,2255.21 1612.45,2255.45 1611.04,2255.6C1609.63,2255.75 1607.96,2255.82 1606.02,2255.82C1603.98,2255.82 1602.23,2255.72 1600.77,2255.53C1599.32,2255.33 1598.1,2255.07 1597.13,2254.73C1596.16,2254.39 1595.41,2253.97 1594.88,2253.49C1594.34,2253 1593.98,2252.47 1593.78,2251.89L1530.29,2087.04L1530.15,2087.04L1530.15,2251.16C1530.15,2251.94 1529.95,2252.62 1529.55,2253.2C1529.15,2253.78 1528.45,2254.24 1527.45,2254.58C1526.45,2254.92 1525.15,2255.21 1523.55,2255.45C1521.95,2255.7 1519.9,2255.82 1517.4,2255.82C1515,2255.82 1513,2255.7 1511.4,2255.45C1509.8,2255.21 1508.53,2254.92 1507.58,2254.58C1506.62,2254.24 1505.98,2253.78 1505.62,2253.2C1505.28,2252.62 1505.1,2251.94 1505.1,2251.16L1505.1,2077.87C1505.1,2073.79 1506.18,2070.88 1508.35,2069.13C1510.52,2067.39 1512.94,2066.51 1515.6,2066.51L1530.98,2066.51C1534.13,2066.51 1536.89,2066.8 1539.26,2067.39C1541.62,2067.97 1543.69,2068.89 1545.47,2070.15C1547.24,2071.41 1548.72,2073.02 1549.9,2074.96C1551.09,2076.9 1552.12,2079.18 1553.01,2081.8L1606.89,2218.25L1607.62,2218.25L1663.68,2082.24C1664.77,2079.33 1665.95,2076.85 1667.23,2074.81C1668.52,2072.77 1669.92,2071.15 1671.45,2069.93C1672.98,2068.72 1674.68,2067.85 1676.55,2067.31C1678.43,2066.78 1680.6,2066.51 1683.06,2066.51L1699.19,2066.51C1700.67,2066.51 1702.08,2066.73 1703.41,2067.17C1704.74,2067.6 1705.87,2068.28 1706.81,2069.2C1707.75,2070.13 1708.51,2071.29 1709.1,2072.7C1709.69,2074.11 1709.99,2075.83 1709.99,2077.87L1709.99,2251.16Z" style="fill-rule:nonzero;"/>
                <path d="M1856.05,2251.45C1856.05,2252.62 1855.66,2253.49 1854.88,2254.07C1854.11,2254.65 1853.04,2255.09 1851.68,2255.38C1850.32,2255.67 1848.33,2255.82 1845.71,2255.82C1843.18,2255.82 1841.17,2255.67 1839.67,2255.38C1838.16,2255.09 1837.07,2254.65 1836.39,2254.07C1835.71,2253.49 1835.37,2252.62 1835.37,2251.45L1835.37,2238.34C1829.64,2244.46 1823.26,2249.22 1816.22,2252.62C1809.18,2256.01 1801.73,2257.71 1793.87,2257.71C1786.98,2257.71 1780.74,2256.81 1775.15,2255.02C1769.57,2253.22 1764.82,2250.62 1760.88,2247.23C1756.95,2243.83 1753.89,2239.66 1751.71,2234.7C1749.53,2229.75 1748.43,2224.12 1748.43,2217.81C1748.43,2210.43 1749.94,2204.03 1752.95,2198.59C1755.96,2193.15 1760.28,2188.64 1765.91,2185.05C1771.54,2181.45 1778.43,2178.76 1786.59,2176.97C1794.74,2175.17 1803.92,2174.27 1814.11,2174.27L1832.17,2174.27L1832.17,2164.08C1832.17,2159.03 1831.63,2154.56 1830.56,2150.68C1829.5,2146.8 1827.77,2143.57 1825.39,2141C1823.02,2138.42 1819.93,2136.48 1816.15,2135.17C1812.36,2133.86 1807.7,2133.21 1802.17,2133.21C1796.25,2133.21 1790.93,2133.91 1786.22,2135.32C1781.51,2136.72 1777.39,2138.28 1773.85,2139.98C1770.3,2141.68 1767.34,2143.23 1764.96,2144.64C1762.58,2146.05 1760.81,2146.75 1759.65,2146.75C1758.87,2146.75 1758.19,2146.55 1757.61,2146.17C1757.03,2145.78 1756.52,2145.2 1756.08,2144.42C1755.64,2143.64 1755.33,2142.65 1755.13,2141.43C1754.94,2140.22 1754.84,2138.89 1754.84,2137.43C1754.84,2135 1755.01,2133.08 1755.35,2131.68C1755.69,2130.27 1756.52,2128.93 1757.83,2127.67C1759.14,2126.41 1761.39,2124.93 1764.6,2123.23C1767.8,2121.53 1771.49,2119.98 1775.66,2118.57C1779.84,2117.16 1784.4,2116 1789.35,2115.08C1794.31,2114.15 1799.3,2113.69 1804.35,2113.69C1813.77,2113.69 1821.78,2114.76 1828.38,2116.9C1834.98,2119.03 1840.32,2122.16 1844.4,2126.29C1848.48,2130.41 1851.44,2135.54 1853.28,2141.65C1855.13,2147.77 1856.05,2154.9 1856.05,2163.06L1856.05,2251.45ZM1832.17,2191.6L1811.63,2191.6C1805.03,2191.6 1799.3,2192.16 1794.45,2193.27C1789.6,2194.39 1785.57,2196.04 1782.36,2198.23C1779.16,2200.41 1776.81,2203.03 1775.3,2206.09C1773.8,2209.15 1773.04,2212.67 1773.04,2216.65C1773.04,2223.44 1775.2,2228.86 1779.52,2232.88C1783.84,2236.91 1789.89,2238.93 1797.65,2238.93C1803.96,2238.93 1809.81,2237.33 1815.2,2234.12C1820.59,2230.92 1826.24,2226.01 1832.17,2219.41L1832.17,2191.6Z" style="fill-rule:nonzero;"/>
                <path d="M2007.79,2251.16C2007.79,2251.94 2007.59,2252.62 2007.2,2253.2C2006.82,2253.78 2006.16,2254.26 2005.24,2254.65C2004.32,2255.04 2003.03,2255.33 2001.38,2255.53C1999.73,2255.72 1997.64,2255.82 1995.12,2255.82C1992.5,2255.82 1990.34,2255.75 1988.64,2255.6C1986.94,2255.45 1985.51,2255.21 1984.34,2254.87C1983.17,2254.53 1982.23,2254.05 1981.5,2253.42C1980.77,2252.78 1980.12,2252.03 1979.54,2251.16L1924.2,2178.64L1924.2,2251.3C1924.2,2252.08 1924.01,2252.74 1923.62,2253.27C1923.23,2253.8 1922.6,2254.26 1921.72,2254.65C1920.85,2255.04 1919.64,2255.33 1918.08,2255.53C1916.53,2255.72 1914.54,2255.82 1912.11,2255.82C1909.78,2255.82 1907.84,2255.72 1906.29,2255.53C1904.73,2255.33 1903.5,2255.04 1902.57,2254.65C1901.65,2254.26 1901.02,2253.8 1900.68,2253.27C1900.34,2252.74 1900.17,2252.08 1900.17,2251.3L1900.17,2056.76C1900.17,2055.98 1900.34,2055.3 1900.68,2054.72C1901.02,2054.13 1901.65,2053.65 1902.57,2053.26C1903.5,2052.87 1904.73,2052.58 1906.29,2052.39C1907.84,2052.19 1909.78,2052.1 1912.11,2052.1C1914.54,2052.1 1916.53,2052.19 1918.08,2052.39C1919.64,2052.58 1920.85,2052.87 1921.72,2053.26C1922.6,2053.65 1923.23,2054.13 1923.62,2054.72C1924.01,2055.3 1924.2,2055.98 1924.2,2056.76L1924.2,2175.29L1973.71,2120.83C1974.49,2119.86 1975.31,2119.06 1976.19,2118.43C1977.06,2117.79 1978.1,2117.26 1979.32,2116.82C1980.53,2116.39 1981.96,2116.1 1983.61,2115.95C1985.26,2115.8 1987.25,2115.73 1989.58,2115.73C1992.01,2115.73 1994.05,2115.8 1995.7,2115.95C1997.35,2116.1 1998.68,2116.34 1999.7,2116.68C2000.72,2117.02 2001.45,2117.45 2001.89,2117.99C2002.33,2118.52 2002.54,2119.23 2002.54,2120.1C2002.54,2121.26 2002.23,2122.43 2001.6,2123.6C2000.97,2124.76 1999.92,2126.12 1998.47,2127.67L1950.99,2175.14L2004.29,2244.32C2005.55,2245.97 2006.45,2247.3 2006.98,2248.32C2007.52,2249.34 2007.79,2250.28 2007.79,2251.16Z" style="fill-rule:nonzero;"/>
                <path d="M2137.97,2180.1C2137.97,2183.88 2137.02,2186.58 2135.12,2188.18C2133.22,2189.78 2131.05,2190.58 2128.61,2190.58L2042.3,2190.58C2042.3,2197.86 2043.03,2204.41 2044.49,2210.24C2045.96,2216.06 2048.39,2221.06 2051.81,2225.24C2055.22,2229.41 2059.66,2232.62 2065.12,2234.85C2070.59,2237.08 2077.27,2238.2 2085.17,2238.2C2091.41,2238.2 2096.98,2237.69 2101.85,2236.67C2106.73,2235.65 2110.95,2234.51 2114.51,2233.25C2118.07,2231.99 2121,2230.85 2123.29,2229.83C2125.58,2228.81 2127.32,2228.3 2128.49,2228.3C2129.17,2228.3 2129.78,2228.47 2130.32,2228.81C2130.85,2229.15 2131.27,2229.66 2131.56,2230.34C2131.85,2231.01 2132.07,2231.96 2132.22,2233.18C2132.36,2234.39 2132.44,2235.87 2132.44,2237.62C2132.44,2238.88 2132.39,2239.97 2132.29,2240.89C2132.19,2241.82 2132.07,2242.64 2131.93,2243.37C2131.78,2244.1 2131.54,2244.75 2131.2,2245.33C2130.86,2245.92 2130.42,2246.47 2129.89,2247.01C2129.36,2247.54 2127.78,2248.42 2125.16,2249.63C2122.53,2250.84 2119.14,2252.03 2114.96,2253.2C2110.79,2254.36 2105.96,2255.41 2100.47,2256.33C2094.99,2257.25 2089.14,2257.71 2082.93,2257.71C2072.15,2257.71 2062.71,2256.21 2054.6,2253.2C2046.5,2250.19 2039.68,2245.72 2034.14,2239.8C2028.61,2233.88 2024.43,2226.45 2021.62,2217.52C2018.8,2208.59 2017.4,2198.2 2017.4,2186.36C2017.4,2175.1 2018.85,2164.97 2021.77,2155.99C2024.68,2147.01 2028.88,2139.39 2034.36,2133.13C2039.85,2126.87 2046.47,2122.07 2054.24,2118.72C2062.01,2115.37 2070.69,2113.69 2080.3,2113.69C2090.6,2113.69 2099.36,2115.34 2106.59,2118.64C2113.82,2121.94 2119.77,2126.39 2124.43,2131.97C2129.09,2137.55 2132.51,2144.1 2134.69,2151.63C2136.88,2159.15 2137.97,2167.18 2137.97,2175.73L2137.97,2180.1ZM2113.8,2172.96C2114.09,2160.34 2111.28,2150.44 2105.37,2143.25C2099.46,2136.07 2090.7,2132.48 2079.07,2132.48C2073.12,2132.48 2067.89,2133.59 2063.4,2135.83C2058.9,2138.06 2055.14,2141.02 2052.11,2144.71C2049.09,2148.4 2046.74,2152.7 2045.08,2157.6C2043.42,2162.5 2042.49,2167.62 2042.3,2172.96L2113.8,2172.96Z" style="fill-rule:nonzero;"/>
                <path d="M2251.12,2128.84C2251.12,2130.97 2251.07,2132.77 2250.97,2134.22C2250.88,2135.68 2250.68,2136.82 2250.39,2137.65C2250.1,2138.47 2249.74,2139.1 2249.3,2139.54C2248.86,2139.98 2248.26,2140.2 2247.48,2140.2C2246.7,2140.2 2245.76,2139.98 2244.64,2139.54C2243.52,2139.1 2242.26,2138.67 2240.85,2138.23C2239.44,2137.79 2237.87,2137.38 2236.12,2136.99C2234.37,2136.6 2232.48,2136.41 2230.44,2136.41C2228.01,2136.41 2225.64,2136.89 2223.3,2137.87C2220.97,2138.84 2218.52,2140.44 2215.95,2142.67C2213.38,2144.9 2210.68,2147.87 2207.87,2151.55C2205.05,2155.24 2201.95,2159.76 2198.55,2165.1L2198.55,2251.3C2198.55,2252.08 2198.36,2252.74 2197.97,2253.27C2197.58,2253.8 2196.95,2254.26 2196.07,2254.65C2195.2,2255.04 2193.99,2255.33 2192.43,2255.53C2190.88,2255.72 2188.89,2255.82 2186.46,2255.82C2184.13,2255.82 2182.19,2255.72 2180.64,2255.53C2179.08,2255.33 2177.85,2255.04 2176.92,2254.65C2176,2254.26 2175.37,2253.8 2175.03,2253.27C2174.69,2252.74 2174.52,2252.08 2174.52,2251.3L2174.52,2120.24C2174.52,2119.47 2174.67,2118.81 2174.96,2118.28C2175.25,2117.75 2175.83,2117.26 2176.71,2116.82C2177.58,2116.39 2178.7,2116.1 2180.05,2115.95C2181.41,2115.8 2183.21,2115.73 2185.44,2115.73C2187.58,2115.73 2189.35,2115.8 2190.76,2115.95C2192.17,2116.1 2193.26,2116.39 2194.03,2116.82C2194.81,2117.26 2195.37,2117.75 2195.71,2118.28C2196.05,2118.81 2196.22,2119.47 2196.22,2120.24L2196.22,2139.32C2199.81,2134.08 2203.18,2129.81 2206.34,2126.51C2209.49,2123.21 2212.48,2120.61 2215.3,2118.72C2218.11,2116.82 2220.9,2115.51 2223.67,2114.78C2226.44,2114.06 2229.23,2113.69 2232.04,2113.69C2233.3,2113.69 2234.74,2113.76 2236.34,2113.91C2237.94,2114.06 2239.61,2114.32 2241.36,2114.71C2243.11,2115.1 2244.69,2115.54 2246.1,2116.02C2247.5,2116.51 2248.5,2116.99 2249.08,2117.48C2249.66,2117.96 2250.05,2118.43 2250.24,2118.86C2250.44,2119.3 2250.61,2119.86 2250.75,2120.54C2250.9,2121.22 2251,2122.21 2251.05,2123.52C2251.09,2124.83 2251.12,2126.6 2251.12,2128.84Z" style="fill-rule:nonzero;"/>
                <path d="M2339.37,2205.29C2339.37,2199.95 2340.09,2194.88 2341.55,2190.07C2343.01,2185.26 2345.29,2180.61 2348.39,2176.09C2351.5,2171.58 2355.55,2167.21 2360.55,2162.99C2365.55,2158.76 2371.6,2154.51 2378.68,2150.24C2374.8,2145 2371.47,2140.24 2368.71,2135.97C2365.94,2131.7 2363.66,2127.72 2361.86,2124.03C2360.07,2120.34 2358.78,2116.82 2358,2113.47C2357.23,2110.12 2356.84,2106.75 2356.84,2103.35C2356.84,2097.33 2357.86,2091.58 2359.9,2086.1C2361.94,2080.61 2365.21,2075.76 2369.73,2071.53C2374.24,2067.31 2380.04,2063.96 2387.13,2061.49C2394.22,2059.01 2402.81,2057.77 2412.9,2057.77C2421.45,2057.77 2428.85,2058.7 2435.11,2060.54C2441.37,2062.39 2446.57,2065.01 2450.69,2068.4C2454.82,2071.8 2457.93,2075.9 2460.01,2080.71C2462.1,2085.51 2463.14,2090.88 2463.14,2096.8C2463.14,2102.53 2462.22,2107.77 2460.38,2112.53C2458.53,2117.28 2455.57,2121.9 2451.49,2126.36C2447.42,2130.83 2442.2,2135.27 2435.84,2139.69C2429.48,2144.1 2421.79,2148.74 2412.76,2153.59C2416.06,2157.57 2419.65,2161.72 2423.53,2166.04C2427.42,2170.36 2431.47,2174.71 2435.69,2179.08C2439.92,2183.45 2444.24,2187.74 2448.65,2191.96C2453.07,2196.19 2457.41,2200.24 2461.69,2204.12C2463.63,2201.5 2465.38,2198.52 2466.93,2195.17C2468.48,2191.82 2469.84,2188.28 2471.01,2184.54C2472.17,2180.8 2473.05,2176.99 2473.63,2173.11C2474.21,2169.22 2474.5,2165.29 2474.5,2161.31L2474.5,2156.07C2474.5,2155.1 2474.67,2154.3 2475.01,2153.66C2475.35,2153.03 2475.91,2152.5 2476.69,2152.06C2477.46,2151.63 2478.6,2151.31 2480.11,2151.12C2481.61,2150.92 2483.58,2150.83 2486.01,2150.83C2488.14,2150.83 2489.96,2150.87 2491.47,2150.97C2492.97,2151.07 2494.21,2151.29 2495.18,2151.63C2496.15,2151.97 2496.85,2152.5 2497.29,2153.23C2497.73,2153.96 2497.95,2154.95 2497.95,2156.21L2497.95,2159.85C2497.95,2165.29 2497.49,2170.63 2496.56,2175.87C2495.64,2181.12 2494.38,2186.24 2492.78,2191.24C2491.18,2196.24 2489.18,2201.02 2486.81,2205.58C2484.43,2210.14 2481.78,2214.37 2478.87,2218.25C2483.24,2221.74 2487.05,2224.66 2490.3,2226.99C2493.55,2229.32 2496.32,2231.21 2498.6,2232.66C2500.88,2234.12 2502.78,2235.14 2504.28,2235.72C2505.79,2236.31 2507.02,2236.6 2507.99,2236.6C2508.97,2236.6 2509.89,2236.55 2510.76,2236.45C2511.64,2236.35 2512.34,2236.5 2512.87,2236.89C2513.41,2237.28 2513.82,2238.05 2514.11,2239.22C2514.4,2240.38 2514.55,2242.18 2514.55,2244.61C2514.55,2247.03 2514.5,2248.97 2514.4,2250.43C2514.3,2251.89 2514.14,2252.98 2513.89,2253.71C2513.65,2254.43 2513.24,2255.04 2512.65,2255.53C2512.07,2256.01 2511,2256.45 2509.45,2256.84C2507.9,2257.23 2505.86,2257.42 2503.33,2257.42C2501.39,2257.42 2499.26,2257.08 2496.93,2256.4C2494.6,2255.72 2491.88,2254.53 2488.77,2252.83C2485.67,2251.14 2482.05,2248.83 2477.92,2245.92C2473.8,2243 2468.97,2239.32 2463.43,2234.85C2459.36,2238.15 2455.06,2241.21 2450.55,2244.02C2446.03,2246.84 2441.23,2249.24 2436.13,2251.23C2431.03,2253.22 2425.69,2254.78 2420.11,2255.89C2414.53,2257.01 2408.49,2257.57 2401.98,2257.57C2395.87,2257.57 2390.07,2257.03 2384.58,2255.96C2379.1,2254.9 2374.02,2253.37 2369.36,2251.38C2364.7,2249.39 2360.53,2246.89 2356.84,2243.88C2353.15,2240.87 2350.02,2237.45 2347.45,2233.61C2344.87,2229.78 2342.88,2225.48 2341.48,2220.72C2340.07,2215.97 2339.37,2210.82 2339.37,2205.29ZM2382.32,2101.46C2382.32,2104.08 2382.69,2106.75 2383.41,2109.47C2384.14,2112.19 2385.26,2115.03 2386.76,2117.99C2388.27,2120.95 2390.11,2124.13 2392.3,2127.53C2394.48,2130.92 2397.08,2134.71 2400.09,2138.89C2407.18,2134.91 2413.12,2131.24 2417.93,2127.89C2422.73,2124.54 2426.59,2121.31 2429.5,2118.21C2432.42,2115.1 2434.53,2111.99 2435.84,2108.89C2437.15,2105.78 2437.8,2102.48 2437.8,2098.99C2437.8,2096.17 2437.3,2093.47 2436.28,2090.9C2435.26,2088.33 2433.63,2086.05 2431.4,2084.06C2429.16,2082.07 2426.35,2080.49 2422.95,2079.33C2419.55,2078.16 2415.48,2077.58 2410.72,2077.58C2405.57,2077.58 2401.23,2078.23 2397.69,2079.54C2394.14,2080.86 2391.23,2082.6 2388.95,2084.79C2386.67,2086.97 2384.99,2089.52 2383.93,2092.43C2382.86,2095.34 2382.32,2098.35 2382.32,2101.46ZM2365.43,2202.81C2365.43,2207.86 2366.28,2212.47 2367.98,2216.65C2369.68,2220.82 2372.18,2224.44 2375.48,2227.49C2378.78,2230.55 2382.91,2232.93 2387.86,2234.63C2392.81,2236.33 2398.54,2237.18 2405.04,2237.18C2409.02,2237.18 2412.9,2236.77 2416.69,2235.94C2420.48,2235.12 2424.09,2234 2427.54,2232.59C2430.99,2231.18 2434.26,2229.49 2437.37,2227.49C2440.47,2225.51 2443.34,2223.39 2445.96,2221.16C2440.91,2216.79 2435.89,2212.25 2430.89,2207.55C2425.89,2202.84 2421.06,2198.1 2416.4,2193.35C2411.74,2188.59 2407.25,2183.86 2402.93,2179.15C2398.61,2174.44 2394.65,2169.85 2391.06,2165.39C2386.21,2168.49 2382.15,2171.58 2378.9,2174.64C2375.65,2177.69 2373.03,2180.75 2371.04,2183.81C2369.05,2186.87 2367.62,2189.95 2366.74,2193.06C2365.87,2196.16 2365.43,2199.41 2365.43,2202.81Z" style="fill-rule:nonzero;"/>
                <path d="M2764.43,2157.96C2764.43,2174.27 2762.35,2188.52 2758.17,2200.7C2754,2212.89 2747.91,2222.98 2739.9,2230.99C2731.89,2239 2722.06,2244.99 2710.41,2248.97C2698.76,2252.95 2684.88,2254.95 2668.76,2254.95L2628.86,2254.95C2626.63,2254.95 2624.52,2254.19 2622.53,2252.69C2620.53,2251.18 2619.54,2248.54 2619.54,2244.75L2619.54,2076.7C2619.54,2072.92 2620.53,2070.27 2622.53,2068.77C2624.52,2067.26 2626.63,2066.51 2628.86,2066.51L2671.53,2066.51C2687.84,2066.51 2701.62,2068.62 2712.88,2072.85C2724.14,2077.07 2733.59,2083.14 2741.21,2091.05C2748.83,2098.96 2754.6,2108.55 2758.54,2119.81C2762.47,2131.07 2764.43,2143.79 2764.43,2157.96ZM2738.08,2158.98C2738.08,2148.79 2736.81,2139.3 2734.29,2130.51C2731.77,2121.73 2727.81,2114.13 2722.42,2107.72C2717.03,2101.32 2710.21,2096.32 2701.96,2092.72C2693.71,2089.13 2683.08,2087.34 2670.07,2087.34L2644.59,2087.34L2644.59,2233.98L2670.36,2233.98C2682.4,2233.98 2692.55,2232.47 2700.8,2229.46C2709.05,2226.45 2715.94,2221.84 2721.47,2215.63C2727.01,2209.41 2731.16,2201.62 2733.93,2192.26C2736.69,2182.89 2738.08,2171.8 2738.08,2158.98Z" style="fill-rule:nonzero;"/>
                <path d="M2912.09,2180.1C2912.09,2183.88 2911.14,2186.58 2909.24,2188.18C2907.34,2189.78 2905.17,2190.58 2902.73,2190.58L2816.42,2190.58C2816.42,2197.86 2817.15,2204.41 2818.62,2210.24C2820.08,2216.06 2822.52,2221.06 2825.93,2225.24C2829.35,2229.41 2833.78,2232.62 2839.25,2234.85C2844.71,2237.08 2851.39,2238.2 2859.29,2238.2C2865.54,2238.2 2871.1,2237.69 2875.98,2236.67C2880.85,2235.65 2885.07,2234.51 2888.63,2233.25C2892.19,2231.99 2895.12,2230.85 2897.41,2229.83C2899.71,2228.81 2901.44,2228.3 2902.61,2228.3C2903.29,2228.3 2903.9,2228.47 2904.44,2228.81C2904.97,2229.15 2905.39,2229.66 2905.68,2230.34C2905.97,2231.01 2906.19,2231.96 2906.34,2233.18C2906.49,2234.39 2906.56,2235.87 2906.56,2237.62C2906.56,2238.88 2906.51,2239.97 2906.41,2240.89C2906.32,2241.82 2906.2,2242.64 2906.05,2243.37C2905.9,2244.1 2905.66,2244.75 2905.32,2245.33C2904.98,2245.92 2904.55,2246.47 2904.01,2247.01C2903.48,2247.54 2901.9,2248.42 2899.28,2249.63C2896.66,2250.84 2893.26,2252.03 2889.09,2253.2C2884.91,2254.36 2880.08,2255.41 2874.6,2256.33C2869.11,2257.25 2863.26,2257.71 2857.05,2257.71C2846.27,2257.71 2836.83,2256.21 2828.72,2253.2C2820.62,2250.19 2813.8,2245.72 2808.26,2239.8C2802.73,2233.88 2798.56,2226.45 2795.74,2217.52C2792.93,2208.59 2791.52,2198.2 2791.52,2186.36C2791.52,2175.1 2792.97,2164.97 2795.89,2155.99C2798.8,2147.01 2803,2139.39 2808.48,2133.13C2813.97,2126.87 2820.6,2122.07 2828.36,2118.72C2836.13,2115.37 2844.82,2113.69 2854.43,2113.69C2864.72,2113.69 2873.48,2115.34 2880.71,2118.64C2887.94,2121.94 2893.89,2126.39 2898.55,2131.97C2903.21,2137.55 2906.63,2144.1 2908.82,2151.63C2911,2159.15 2912.09,2167.18 2912.09,2175.73L2912.09,2180.1ZM2887.92,2172.96C2888.21,2160.34 2885.4,2150.44 2879.49,2143.25C2873.59,2136.07 2864.82,2132.48 2853.2,2132.48C2847.24,2132.48 2842.01,2133.59 2837.52,2135.83C2833.03,2138.06 2829.27,2141.02 2826.24,2144.71C2823.21,2148.4 2820.86,2152.7 2819.2,2157.6C2817.54,2162.5 2816.62,2167.62 2816.42,2172.96L2887.92,2172.96Z" style="fill-rule:nonzero;"/>
                <path d="M3030.92,2215.63C3030.92,2222.33 3029.68,2228.3 3027.21,2233.54C3024.73,2238.78 3021.21,2243.2 3016.65,2246.79C3012.09,2250.38 3006.65,2253.1 3000.34,2254.95C2994.03,2256.79 2987.09,2257.71 2979.52,2257.71C2974.86,2257.71 2970.41,2257.35 2966.19,2256.62C2961.97,2255.89 2958.18,2254.97 2954.83,2253.85C2951.48,2252.74 2948.64,2251.57 2946.31,2250.36C2943.98,2249.14 2942.28,2248.05 2941.22,2247.08C2940.15,2246.11 2939.37,2244.75 2938.89,2243C2938.4,2241.26 2938.16,2238.88 2938.16,2235.87C2938.16,2234.02 2938.26,2232.47 2938.45,2231.21C2938.64,2229.95 2938.89,2228.93 2939.18,2228.15C2939.47,2227.37 2939.88,2226.82 2940.42,2226.48C2940.95,2226.14 2941.56,2225.97 2942.24,2225.97C2943.3,2225.97 2944.88,2226.62 2946.97,2227.93C2949.06,2229.24 2951.63,2230.68 2954.69,2232.23C2957.75,2233.78 2961.36,2235.21 2965.54,2236.52C2969.71,2237.84 2974.52,2238.49 2979.95,2238.49C2984.03,2238.49 2987.72,2238.05 2991.02,2237.18C2994.32,2236.31 2997.18,2235.02 2999.61,2233.32C3002.04,2231.62 3003.91,2229.46 3005.22,2226.84C3006.53,2224.22 3007.18,2221.11 3007.18,2217.52C3007.18,2213.83 3006.24,2210.72 3004.34,2208.2C3002.45,2205.68 2999.95,2203.44 2996.85,2201.5C2993.74,2199.56 2990.24,2197.84 2986.36,2196.33C2982.48,2194.83 2978.47,2193.25 2974.35,2191.6C2970.22,2189.95 2966.19,2188.08 2962.26,2185.99C2958.33,2183.91 2954.81,2181.36 2951.7,2178.35C2948.6,2175.34 2946.1,2171.75 2944.2,2167.57C2942.31,2163.4 2941.36,2158.4 2941.36,2152.57C2941.36,2147.43 2942.36,2142.5 2944.35,2137.79C2946.34,2133.08 2949.32,2128.96 2953.3,2125.41C2957.28,2121.87 2962.26,2119.03 2968.23,2116.9C2974.2,2114.76 2981.17,2113.69 2989.13,2113.69C2992.62,2113.69 2996.12,2113.98 2999.61,2114.57C3003.11,2115.15 3006.26,2115.88 3009.08,2116.75C3011.89,2117.62 3014.3,2118.57 3016.28,2119.59C3018.28,2120.61 3019.78,2121.51 3020.8,2122.28C3021.82,2123.06 3022.5,2123.74 3022.84,2124.32C3023.18,2124.91 3023.42,2125.56 3023.57,2126.29C3023.71,2127.02 3023.86,2127.91 3024,2128.98C3024.15,2130.05 3024.22,2131.36 3024.22,2132.91C3024.22,2134.57 3024.15,2136 3024,2137.21C3023.86,2138.42 3023.62,2139.42 3023.28,2140.2C3022.93,2140.97 3022.52,2141.53 3022.04,2141.87C3021.55,2142.21 3021.02,2142.38 3020.44,2142.38C3019.56,2142.38 3018.3,2141.85 3016.65,2140.78C3015,2139.71 3012.86,2138.57 3010.24,2137.36C3007.62,2136.14 3004.54,2135 3000.99,2133.93C2997.45,2132.87 2993.4,2132.33 2988.84,2132.33C2984.76,2132.33 2981.17,2132.79 2978.06,2133.72C2974.95,2134.64 2972.41,2135.95 2970.41,2137.65C2968.42,2139.35 2966.92,2141.36 2965.9,2143.69C2964.88,2146.02 2964.37,2148.54 2964.37,2151.26C2964.37,2155.05 2965.34,2158.23 2967.28,2160.8C2969.22,2163.37 2971.75,2165.63 2974.86,2167.57C2977.96,2169.51 2981.51,2171.26 2985.49,2172.82C2989.47,2174.37 2993.52,2175.97 2997.65,2177.62C3001.77,2179.27 3005.85,2181.12 3009.88,2183.15C3013.91,2185.19 3017.47,2187.67 3020.58,2190.58C3023.69,2193.49 3026.19,2196.99 3028.08,2201.07C3029.97,2205.14 3030.92,2210 3030.92,2215.63Z" style="fill-rule:nonzero;"/>
                <path d="M3089.31,2251.3C3089.31,2252.08 3089.12,2252.74 3088.73,2253.27C3088.34,2253.8 3087.71,2254.26 3086.84,2254.65C3085.97,2255.04 3084.75,2255.33 3083.2,2255.53C3081.64,2255.72 3079.66,2255.82 3077.23,2255.82C3074.9,2255.82 3072.96,2255.72 3071.4,2255.53C3069.85,2255.33 3068.61,2255.04 3067.69,2254.65C3066.77,2254.26 3066.14,2253.8 3065.8,2253.27C3065.46,2252.74 3065.29,2252.08 3065.29,2251.3L3065.29,2120.24C3065.29,2119.57 3065.46,2118.93 3065.8,2118.35C3066.14,2117.77 3066.77,2117.28 3067.69,2116.9C3068.61,2116.51 3069.85,2116.22 3071.4,2116.02C3072.96,2115.83 3074.9,2115.73 3077.23,2115.73C3079.66,2115.73 3081.64,2115.83 3083.2,2116.02C3084.75,2116.22 3085.97,2116.51 3086.84,2116.9C3087.71,2117.28 3088.34,2117.77 3088.73,2118.35C3089.12,2118.93 3089.31,2119.57 3089.31,2120.24L3089.31,2251.3ZM3092.08,2075.98C3092.08,2081.61 3091.01,2085.44 3088.88,2087.48C3086.74,2089.52 3082.81,2090.54 3077.08,2090.54C3071.45,2090.54 3067.59,2089.54 3065.51,2087.55C3063.42,2085.56 3062.37,2081.8 3062.37,2076.27C3062.37,2070.64 3063.44,2066.8 3065.58,2064.76C3067.71,2062.72 3071.65,2061.71 3077.37,2061.71C3083,2061.71 3086.86,2062.7 3088.95,2064.69C3091.04,2066.68 3092.08,2070.44 3092.08,2075.98Z" style="fill-rule:nonzero;"/>
                <path d="M3243.24,2126.22C3243.24,2129.61 3242.78,2132.07 3241.85,2133.57C3240.93,2135.07 3239.74,2135.83 3238.28,2135.83L3219.5,2135.83C3222.9,2139.32 3225.28,2143.18 3226.64,2147.4C3227.99,2151.63 3228.67,2156.02 3228.67,2160.58C3228.67,2168.16 3227.46,2174.85 3225.03,2180.68C3222.61,2186.5 3219.14,2191.43 3214.62,2195.46C3210.11,2199.49 3204.74,2202.57 3198.53,2204.71C3192.32,2206.84 3185.42,2207.91 3177.85,2207.91C3172.51,2207.91 3167.44,2207.21 3162.64,2205.8C3157.83,2204.39 3154.12,2202.62 3151.49,2200.48C3149.75,2202.23 3148.32,2204.22 3147.2,2206.45C3146.08,2208.69 3145.52,2211.26 3145.52,2214.17C3145.52,2217.57 3147.1,2220.38 3150.26,2222.62C3153.41,2224.85 3157.61,2226.06 3162.85,2226.26L3197.07,2227.71C3203.58,2227.91 3209.55,2228.81 3214.99,2230.41C3220.42,2232.01 3225.13,2234.29 3229.11,2237.25C3233.09,2240.21 3236.2,2243.85 3238.43,2248.17C3240.66,2252.49 3241.78,2257.52 3241.78,2263.24C3241.78,2269.26 3240.52,2274.99 3237.99,2280.43C3235.47,2285.87 3231.61,2290.65 3226.42,2294.77C3221.22,2298.9 3214.6,2302.15 3206.54,2304.53C3198.48,2306.91 3188.97,2308.1 3178,2308.1C3167.42,2308.1 3158.41,2307.2 3150.99,2305.4C3143.56,2303.61 3137.47,2301.16 3132.71,2298.05C3127.95,2294.94 3124.51,2291.23 3122.37,2286.91C3120.24,2282.59 3119.17,2277.91 3119.17,2272.86C3119.17,2269.65 3119.56,2266.55 3120.33,2263.54C3121.11,2260.53 3122.3,2257.66 3123.9,2254.95C3125.5,2252.23 3127.49,2249.63 3129.87,2247.15C3132.25,2244.68 3134.99,2242.23 3138.1,2239.8C3133.34,2237.37 3129.82,2234.32 3127.54,2230.63C3125.26,2226.94 3124.12,2222.96 3124.12,2218.68C3124.12,2212.76 3125.33,2207.47 3127.76,2202.81C3130.18,2198.15 3133.2,2193.98 3136.79,2190.29C3133.78,2186.7 3131.4,2182.64 3129.65,2178.13C3127.9,2173.62 3127.03,2168.16 3127.03,2161.75C3127.03,2154.27 3128.29,2147.57 3130.82,2141.65C3133.34,2135.73 3136.84,2130.73 3141.3,2126.65C3145.77,2122.57 3151.13,2119.44 3157.39,2117.26C3163.65,2115.08 3170.47,2113.98 3177.85,2113.98C3181.83,2113.98 3185.55,2114.2 3188.99,2114.64C3192.44,2115.08 3195.67,2115.68 3198.68,2116.46L3238.28,2116.46C3239.93,2116.46 3241.17,2117.26 3242,2118.86C3242.82,2120.46 3243.24,2122.91 3243.24,2126.22ZM3205.67,2160.73C3205.67,2151.8 3203.21,2144.83 3198.31,2139.83C3193.41,2134.83 3186.44,2132.33 3177.41,2132.33C3172.76,2132.33 3168.7,2133.11 3165.26,2134.66C3161.81,2136.22 3158.95,2138.35 3156.66,2141.07C3154.38,2143.79 3152.68,2146.92 3151.57,2150.46C3150.45,2154.01 3149.89,2157.72 3149.89,2161.6C3149.89,2170.24 3152.34,2177.04 3157.25,2181.99C3162.15,2186.94 3169.02,2189.41 3177.85,2189.41C3182.61,2189.41 3186.74,2188.66 3190.23,2187.16C3193.72,2185.65 3196.61,2183.57 3198.89,2180.9C3201.18,2178.23 3202.88,2175.14 3203.99,2171.65C3205.11,2168.16 3205.67,2164.51 3205.67,2160.73ZM3217.75,2264.56C3217.75,2258.93 3215.45,2254.58 3210.84,2251.52C3206.22,2248.47 3199.99,2246.84 3192.12,2246.64L3158.19,2245.48C3155.09,2247.91 3152.54,2250.21 3150.55,2252.4C3148.56,2254.58 3146.98,2256.67 3145.82,2258.66C3144.65,2260.65 3143.85,2262.61 3143.41,2264.56C3142.98,2266.5 3142.76,2268.49 3142.76,2270.53C3142.76,2276.84 3145.96,2281.62 3152.37,2284.87C3158.78,2288.12 3167.71,2289.75 3179.16,2289.75C3186.44,2289.75 3192.54,2289.05 3197.44,2287.64C3202.34,2286.23 3206.3,2284.36 3209.31,2282.03C3212.32,2279.7 3214.48,2277.03 3215.79,2274.02C3217.1,2271.01 3217.75,2267.86 3217.75,2264.56Z" style="fill-rule:nonzero;"/>
                <path d="M3386.96,2251.3C3386.96,2252.08 3386.77,2252.74 3386.38,2253.27C3385.99,2253.8 3385.36,2254.26 3384.49,2254.65C3383.62,2255.04 3382.4,2255.33 3380.85,2255.53C3379.3,2255.72 3377.35,2255.82 3375.02,2255.82C3372.6,2255.82 3370.61,2255.72 3369.05,2255.53C3367.5,2255.33 3366.29,2255.04 3365.41,2254.65C3364.54,2254.26 3363.91,2253.8 3363.52,2253.27C3363.13,2252.74 3362.94,2252.08 3362.94,2251.3L3362.94,2174.56C3362.94,2167.09 3362.35,2161.07 3361.19,2156.51C3360.02,2151.94 3358.33,2148.01 3356.09,2144.71C3353.86,2141.41 3350.97,2138.89 3347.43,2137.14C3343.89,2135.39 3339.78,2134.52 3335.12,2134.52C3329.1,2134.52 3323.09,2136.65 3317.07,2140.92C3311.05,2145.2 3304.74,2151.46 3298.14,2159.71L3298.14,2251.3C3298.14,2252.08 3297.94,2252.74 3297.55,2253.27C3297.16,2253.8 3296.53,2254.26 3295.66,2254.65C3294.79,2255.04 3293.57,2255.33 3292.02,2255.53C3290.47,2255.72 3288.48,2255.82 3286.05,2255.82C3283.72,2255.82 3281.78,2255.72 3280.22,2255.53C3278.67,2255.33 3277.43,2255.04 3276.51,2254.65C3275.59,2254.26 3274.96,2253.8 3274.62,2253.27C3274.28,2252.74 3274.11,2252.08 3274.11,2251.3L3274.11,2120.24C3274.11,2119.47 3274.25,2118.81 3274.55,2118.28C3274.84,2117.75 3275.42,2117.26 3276.29,2116.82C3277.17,2116.39 3278.28,2116.1 3279.64,2115.95C3281,2115.8 3282.8,2115.73 3285.03,2115.73C3287.16,2115.73 3288.94,2115.8 3290.35,2115.95C3291.75,2116.1 3292.84,2116.39 3293.62,2116.82C3294.4,2117.26 3294.96,2117.75 3295.3,2118.28C3295.64,2118.81 3295.81,2119.47 3295.81,2120.24L3295.81,2137.57C3303.18,2129.32 3310.54,2123.28 3317.87,2119.44C3325.2,2115.61 3332.6,2113.69 3340.07,2113.69C3348.81,2113.69 3356.16,2115.17 3362.14,2118.13C3368.11,2121.1 3372.94,2125.05 3376.62,2130C3380.31,2134.95 3382.96,2140.75 3384.56,2147.4C3386.16,2154.05 3386.96,2162.04 3386.96,2171.36L3386.96,2251.3Z" style="fill-rule:nonzero;"/>
                <path d="M3542.63,2180.1C3542.63,2183.88 3541.68,2186.58 3539.78,2188.18C3537.88,2189.78 3535.71,2190.58 3533.27,2190.58L3446.96,2190.58C3446.96,2197.86 3447.69,2204.41 3449.16,2210.24C3450.62,2216.06 3453.06,2221.06 3456.47,2225.24C3459.89,2229.41 3464.32,2232.62 3469.79,2234.85C3475.25,2237.08 3481.93,2238.2 3489.83,2238.2C3496.08,2238.2 3501.64,2237.69 3506.52,2236.67C3511.39,2235.65 3515.61,2234.51 3519.17,2233.25C3522.73,2231.99 3525.66,2230.85 3527.95,2229.83C3530.25,2228.81 3531.98,2228.3 3533.15,2228.3C3533.83,2228.3 3534.44,2228.47 3534.98,2228.81C3535.51,2229.15 3535.93,2229.66 3536.22,2230.34C3536.51,2231.01 3536.73,2231.96 3536.88,2233.18C3537.03,2234.39 3537.1,2235.87 3537.1,2237.62C3537.1,2238.88 3537.05,2239.97 3536.95,2240.89C3536.86,2241.82 3536.74,2242.64 3536.59,2243.37C3536.44,2244.1 3536.2,2244.75 3535.86,2245.33C3535.52,2245.92 3535.09,2246.47 3534.55,2247.01C3534.02,2247.54 3532.44,2248.42 3529.82,2249.63C3527.2,2250.84 3523.8,2252.03 3519.62,2253.2C3515.45,2254.36 3510.62,2255.41 3505.14,2256.33C3499.65,2257.25 3493.8,2257.71 3487.59,2257.71C3476.81,2257.71 3467.37,2256.21 3459.26,2253.2C3451.16,2250.19 3444.34,2245.72 3438.81,2239.8C3433.27,2233.88 3429.1,2226.45 3426.28,2217.52C3423.47,2208.59 3422.06,2198.2 3422.06,2186.36C3422.06,2175.1 3423.51,2164.97 3426.43,2155.99C3429.34,2147.01 3433.54,2139.39 3439.02,2133.13C3444.51,2126.87 3451.14,2122.07 3458.9,2118.72C3466.67,2115.37 3475.36,2113.69 3484.97,2113.69C3495.26,2113.69 3504.02,2115.34 3511.25,2118.64C3518.48,2121.94 3524.43,2126.39 3529.09,2131.97C3533.75,2137.55 3537.17,2144.1 3539.36,2151.63C3541.54,2159.15 3542.63,2167.18 3542.63,2175.73L3542.63,2180.1ZM3518.46,2172.96C3518.75,2160.34 3515.94,2150.44 3510.03,2143.25C3504.13,2136.07 3495.36,2132.48 3483.74,2132.48C3477.78,2132.48 3472.55,2133.59 3468.06,2135.83C3463.57,2138.06 3459.81,2141.02 3456.78,2144.71C3453.75,2148.4 3451.4,2152.7 3449.74,2157.6C3448.08,2162.5 3447.16,2167.62 3446.96,2172.96L3518.46,2172.96Z" style="fill-rule:nonzero;"/>
                <path d="M3655.78,2128.84C3655.78,2130.97 3655.73,2132.77 3655.64,2134.22C3655.54,2135.68 3655.34,2136.82 3655.05,2137.65C3654.76,2138.47 3654.4,2139.1 3653.96,2139.54C3653.52,2139.98 3652.92,2140.2 3652.14,2140.2C3651.36,2140.2 3650.42,2139.98 3649.3,2139.54C3648.18,2139.1 3646.92,2138.67 3645.51,2138.23C3644.11,2137.79 3642.53,2137.38 3640.78,2136.99C3639.03,2136.6 3637.14,2136.41 3635.1,2136.41C3632.68,2136.41 3630.3,2136.89 3627.97,2137.87C3625.64,2138.84 3623.19,2140.44 3620.61,2142.67C3618.04,2144.9 3615.35,2147.87 3612.53,2151.55C3609.72,2155.24 3606.61,2159.76 3603.21,2165.1L3603.21,2251.3C3603.21,2252.08 3603.02,2252.74 3602.63,2253.27C3602.24,2253.8 3601.61,2254.26 3600.74,2254.65C3599.86,2255.04 3598.65,2255.33 3597.1,2255.53C3595.54,2255.72 3593.55,2255.82 3591.12,2255.82C3588.8,2255.82 3586.85,2255.72 3585.3,2255.53C3583.75,2255.33 3582.51,2255.04 3581.59,2254.65C3580.66,2254.26 3580.03,2253.8 3579.69,2253.27C3579.35,2252.74 3579.18,2252.08 3579.18,2251.3L3579.18,2120.24C3579.18,2119.47 3579.33,2118.81 3579.62,2118.28C3579.91,2117.75 3580.49,2117.26 3581.37,2116.82C3582.24,2116.39 3583.36,2116.1 3584.72,2115.95C3586.08,2115.8 3587.87,2115.73 3590.11,2115.73C3592.24,2115.73 3594.01,2115.8 3595.42,2115.95C3596.83,2116.1 3597.92,2116.39 3598.7,2116.82C3599.47,2117.26 3600.03,2117.75 3600.37,2118.28C3600.71,2118.81 3600.88,2119.47 3600.88,2120.24L3600.88,2139.32C3604.47,2134.08 3607.85,2129.81 3611,2126.51C3614.16,2123.21 3617.14,2120.61 3619.96,2118.72C3622.77,2116.82 3625.57,2115.51 3628.33,2114.78C3631.1,2114.06 3633.89,2113.69 3636.7,2113.69C3637.97,2113.69 3639.4,2113.76 3641,2113.91C3642.6,2114.06 3644.28,2114.32 3646.02,2114.71C3647.77,2115.1 3649.35,2115.54 3650.76,2116.02C3652.16,2116.51 3653.16,2116.99 3653.74,2117.48C3654.33,2117.96 3654.71,2118.43 3654.91,2118.86C3655.1,2119.3 3655.27,2119.86 3655.42,2120.54C3655.56,2121.22 3655.66,2122.21 3655.71,2123.52C3655.76,2124.83 3655.78,2126.6 3655.78,2128.84Z" style="fill-rule:nonzero;"/>
            </g>
        </g>
    </g>
    <g id="Line" transform="matrix(1,0,0,1,24.3902,-861.635)">
        <g transform="matrix(1,0,0,1,-25.4132,865.727)">
            <path d="M159.991,895.981L1202.72,895.981" style="fill:none;stroke:rgb(112,111,111);stroke-width:29.17px;"/>
        </g>
        <g transform="matrix(1,0,0,1,2253.42,865.727)">
            <path d="M159.991,895.981L1202.72,895.981" style="fill:none;stroke:rgb(112,111,111);stroke-width:29.17px;"/>
        </g>
    </g>
    <g id="Elephant" transform="matrix(0.653699,0,0,0.653699,578.174,539.584)">
        <g transform="matrix(1,0,0,1,-0.156895,98.1903)">
            <path d="M2303.33,435.584C2221.55,428.922 2195.87,363.288 2144.45,263.443C2094.17,165.802 2027.14,125.862 1948.82,119.469C1891.11,114.758 1820.12,141.655 1802.54,156.041C1784.96,170.427 1726.02,115.223 1646.1,131.208C1566.17,147.192 1393.03,210.465 1372.25,386.293C1351.47,562.121 1462.59,729.907 1466.46,755.069C1492.03,755.647 1543.88,763.188 1563.06,762.167C1566.04,717.671 1511.29,538.688 1688.27,536.661C1822.35,535.126 1805.79,705.697 1796.47,759.341C1817.43,759.789 1857.28,763.948 1892.44,765.547C1917.89,737.311 1975.6,553.412 1989.99,510.254C2011.08,501.288 2046.25,516.219 2064.99,499.155C2101.76,465.673 2138.09,391.076 2169.17,417.52C2209.22,451.59 2241.26,488.31 2285.8,492.557C2343.95,498.1 2406.54,487.018 2474.75,423.803C2497.46,402.753 2510.47,343.484 2506.86,308.549C2504.05,281.33 2487.5,245.753 2446.41,233.337C2425.96,227.155 2358.22,213.161 2322.95,250.597C2283.52,292.452 2297.63,329.414 2342.9,383.815C2359.21,374.756 2383.32,361.01 2393.01,350.712C2348.92,344.004 2340.95,308.499 2367.3,284.581C2380.1,272.955 2432.55,276.103 2455.93,312.305C2470.33,334.612 2441.21,370.082 2424.55,386.86C2410.33,401.18 2340.61,438.62 2303.33,435.584Z" style="fill:rgb(112,111,111);"/>
        </g>
        <g transform="matrix(1,0,0,1,-12.1951,97.5609)">
            <path d="M2373.28,372.633C2313.34,370.135 2320.87,283.939 2386.5,302.167C2531.49,342.436 2344.25,488.643 2257.42,452.483C2216.39,435.399 2192.18,420.241 2147.53,325.213C2106.03,236.915 2030.59,143.445 1947.12,143.445C1777.29,143.445 1679.88,223.367 1659.9,308.284C1639.92,393.201 1722.34,443.152 1784.78,443.152C1847.22,443.152 1899.67,405.689 1907.16,308.284C1914.65,210.879 1747.32,153.435 1634.93,155.933C1522.54,158.431 1350.21,293.299 1347.71,435.66C1345.21,578.021 1437.62,732.87 1445.11,780.323C1510.05,787.816 1543.75,784.056 1543.75,784.056C1526.27,691.646 1502.56,573.026 1659.9,560.538C1817.25,548.05 1773.77,730.16 1776.27,785.107C1826.22,787.604 1830.87,787.297 1872.2,788.507C1902.98,751.044 1949.62,627.972 1967.1,533.065C1994.82,530.227 2020.36,545.101 2057.83,510.135C2095.29,475.169 2118.31,433.571 2137.84,434.926C2149.69,435.748 2163.4,463.158 2212.25,493.631C2251.19,517.926 2295.78,525.214 2355.72,505.016C2419.5,483.525 2456.5,460.546 2477.62,401.368C2509.54,311.911 2467.36,268.187 2424,255.008C2359.35,235.362 2306.84,249.041 2288.17,292.125C2266.67,341.745 2286.35,357.757 2321.89,406.661C2352.68,400.47 2372.37,378.275 2373.28,372.633Z" style="fill:none;stroke:rgb(0,62,121);stroke-width:12.75px;"/>
        </g>
        <g transform="matrix(1,0,0,1,-12.1951,97.5609)">
            <path d="M1233.36,589.09C1233.36,589.09 1276.95,716.842 1358.8,536.538" style="fill:none;stroke:rgb(0,62,121);stroke-width:12.75px;"/>
        </g>
        <g transform="matrix(1,0,0,1,-12.1951,97.5609)">
            <ellipse cx="2001.25" cy="278.353" rx="14.706" ry="12.788" style="fill:rgb(0,62,121);"/>
        </g>
    </g>
</svg>
